<svg fill="none" xmlns="http://www.w3.org/2000/svg" viewBox="0 0 1440 940">
  <g clip-path="url(#6OzUyx2HH-ZUa)" stroke="#CAE1E1">
    <path d="M-92.03-14.163C10.743-27.486 111.343 18.38 190.913 103.4c79.57 85.018 138.076 209.162 156.629 352.282 18.553 143.12-6.365 278.078-61.627 380.575-55.26 102.5-140.84 172.503-243.615 185.823-102.774 13.32-203.375-32.543-282.945-117.562-79.569-85.019-138.076-209.162-156.629-352.282-18.553-143.121 6.366-278.079 61.627-380.576C-280.386 69.162-194.805-.84-92.031-14.163z"/>
    <path d="M284.373 158.814c74.398 33.224 118.049 116.625 128.362 224.796 10.31 108.152-12.727 240.952-71.583 372.748-58.857 131.795-142.37 237.588-229.788 302.102-87.431 64.52-178.672 87.68-253.069 54.45-74.397-33.22-118.048-116.622-128.361-224.792-10.311-108.153 12.726-240.953 71.583-372.748 58.857-131.796 142.37-237.589 229.787-302.098 87.432-64.52 178.672-87.682 253.069-54.458zm948.047 186.309c94.59-19.185 191.89 20.671 272.75 100.743 80.86 80.069 145.24 200.313 173.92 341.758 28.69 141.445 16.25 277.266-27.02 382.516-43.28 105.25-117.36 179.86-211.95 199.05-94.6 19.18-191.9-20.67-272.76-100.75-80.86-80.06-145.23-200.31-173.921-341.753-28.688-141.446-16.25-277.268 27.021-382.513 43.28-105.25 117.37-179.867 211.96-199.051z"/>
    <path d="M1366.42 534.123c94.59-19.185 191.89 20.671 272.75 100.743 80.86 80.069 145.24 200.313 173.92 341.758 28.69 141.446 16.25 277.266-27.02 382.516-43.28 105.25-117.36 179.86-211.95 199.05-94.6 19.18-191.9-20.67-272.76-100.75-80.86-80.06-145.23-200.31-173.92-341.75-28.69-141.449-16.25-277.271 27.02-382.516 43.28-105.25 117.37-179.867 211.96-199.051z"/>
    <path d="M1679.24 138.898c85.8 44.209 136.78 136.175 149.77 249.23 12.99 113.051-12.01 247.13-78.12 375.425-66.11 128.295-160.78 226.476-260.38 281.507-99.61 55.04-204.08 66.9-289.88 22.7-85.8-44.21-136.78-136.178-149.77-249.233-12.99-113.051 12.01-247.13 78.12-375.425 66.11-128.296 160.78-226.476 260.38-281.511 99.61-55.037 204.09-66.901 289.88-22.693z"/>
  </g>
  <defs>
    <clipPath id="6OzUyx2HH-ZUa">
      <path fill="#fff" d="M0 0h1440v940H0z"/>
    </clipPath>
  </defs>
</svg>
