<svg width="32" height="32" viewBox="0 0 32 32" fill="none" xmlns="http://www.w3.org/2000/svg">
<rect x="0.25" y="0.25" width="31.5" height="31.5" rx="15.75" stroke="#EAECEE" stroke-width="0.5"/>
<path d="M16.5942 27.2579L16.5822 27.2599L16.5112 27.2949L16.4912 27.2989L16.4772 27.2949L16.4062 27.2589C16.3955 27.2563 16.3875 27.2583 16.3822 27.2649L16.3782 27.2749L16.3612 27.7029L16.3662 27.7229L16.3762 27.7359L16.4802 27.8099L16.4952 27.8139L16.5072 27.8099L16.6112 27.7359L16.6232 27.7199L16.6272 27.7029L16.6102 27.2759C16.6075 27.2653 16.6022 27.2593 16.5942 27.2579ZM16.8582 27.1449L16.8442 27.1469L16.6602 27.2399L16.6502 27.2499L16.6472 27.2609L16.6652 27.6909L16.6702 27.7029L16.6782 27.7109L16.8792 27.8029C16.8918 27.8063 16.9015 27.8036 16.9082 27.7949L16.9122 27.7809L16.8782 27.1669C16.8748 27.1543 16.8682 27.1469 16.8582 27.1449ZM16.1432 27.1469C16.1388 27.1443 16.1335 27.1434 16.1285 27.1445C16.1234 27.1456 16.119 27.1487 16.1162 27.1529L16.1102 27.1669L16.0762 27.7809C16.0768 27.7929 16.0825 27.8009 16.0932 27.8049L16.1082 27.8029L16.3092 27.7099L16.3192 27.7019L16.3222 27.6909L16.3402 27.2609L16.3372 27.2489L16.3272 27.2389L16.1432 27.1469Z" fill="#9a7f71"/>
<path d="M16.0007 6C14.1441 6 12.3637 6.7375 11.0509 8.05025C9.73816 9.36301 9.00066 11.1435 9.00066 13V16.528C9.00081 16.6831 8.96486 16.8362 8.89566 16.975L7.17866 20.408C7.09479 20.5757 7.05518 20.7621 7.06361 20.9494C7.07204 21.1368 7.12822 21.3188 7.22681 21.4783C7.3254 21.6379 7.46314 21.7695 7.62693 21.8608C7.79072 21.9521 7.97514 22 8.16266 22H23.8387C24.0262 22 24.2106 21.9521 24.3744 21.8608C24.5382 21.7695 24.6759 21.6379 24.7745 21.4783C24.8731 21.3188 24.9293 21.1368 24.9377 20.9494C24.9461 20.7621 24.9065 20.5757 24.8227 20.408L23.1067 16.975C23.0371 16.8362 23.0008 16.6832 23.0007 16.528V13C23.0007 11.1435 22.2632 9.36301 20.9504 8.05025C19.6377 6.7375 17.8572 6 16.0007 6ZM16.0007 25C15.38 25.0003 14.7745 24.8081 14.2677 24.4499C13.7608 24.0917 13.3775 23.5852 13.1707 23H18.8307C18.6238 23.5852 18.2405 24.0917 17.7336 24.4499C17.2268 24.8081 16.6213 25.0003 16.0007 25Z" fill="#9a7f71"/>
</svg>
