<svg width="371" height="371" xmlns="http://www.w3.org/2000/svg" xmlns:xlink="http://www.w3.org/1999/xlink" xml:space="preserve" overflow="hidden"><g transform="translate(-714 -743)"><path d="M185.5 2.89844C286.348 2.89844 368.101 84.6519 368.101 185.5L368.101 185.5C368.101 286.348 286.348 368.101 185.5 368.101L185.5 368.101C84.6519 368.101 2.89844 286.348 2.89844 185.5L2.89844 185.5C2.89844 84.6519 84.6519 2.89844 185.5 2.89844Z" stroke="#EAECEE" stroke-width="5.79687" fill="none" transform="matrix(1 0 0 1 714 743)"/><path d="M192.389 316.021 192.25 316.044 191.427 316.45 191.195 316.497 191.032 316.45 190.209 316.033C190.085 316.003 189.993 316.026 189.931 316.102L189.885 316.218 189.688 321.18 189.746 321.412 189.862 321.563 191.067 322.421 191.241 322.467 191.38 322.421 192.586 321.563 192.725 321.378 192.772 321.18 192.574 316.23C192.543 316.107 192.482 316.037 192.389 316.021ZM195.45 314.711 195.287 314.734 193.154 315.813 193.038 315.928 193.003 316.056 193.212 321.041 193.27 321.18 193.363 321.273 195.693 322.34C195.839 322.379 195.952 322.348 196.029 322.247L196.076 322.085 195.682 314.966C195.642 314.82 195.566 314.734 195.45 314.711ZM187.16 314.734C187.109 314.704 187.048 314.694 186.99 314.706 186.931 314.719 186.88 314.755 186.847 314.804L186.778 314.966 186.383 322.085C186.39 322.224 186.456 322.317 186.581 322.363L186.754 322.34 189.085 321.262 189.201 321.169 189.235 321.041 189.444 316.056 189.409 315.917 189.293 315.801 187.16 314.734Z" fill="#A4776F" transform="matrix(1 0 0 1 714 743)"/><path d="M185.508 69.5625C163.983 69.5625 143.342 78.1129 128.121 93.3326 112.902 108.552 104.351 129.195 104.351 150.719L104.351 191.621C104.353 193.42 103.936 195.195 103.134 196.804L83.2276 236.605C82.2552 238.549 81.796 240.711 81.8937 242.882 81.9914 245.055 82.6428 247.165 83.7858 249.014 84.9288 250.864 86.5258 252.39 88.4247 253.449 90.3236 254.507 92.4618 255.062 94.6358 255.062L276.38 255.062C278.554 255.062 280.692 254.507 282.591 253.449 284.49 252.39 286.086 250.864 287.229 249.014 288.372 247.165 289.024 245.055 289.121 242.882 289.219 240.711 288.76 238.549 287.788 236.605L267.893 196.804C267.086 195.195 266.665 193.421 266.664 191.621L266.664 150.719C266.664 129.195 258.114 108.552 242.894 93.3326 227.675 78.1129 207.032 69.5625 185.508 69.5625ZM185.508 289.844C178.312 289.847 171.292 287.619 165.416 283.466 159.539 279.313 155.095 273.441 152.698 266.656L218.318 266.656C215.92 273.441 211.476 279.313 205.599 283.466 199.723 287.619 192.703 289.847 185.508 289.844Z" fill="#A4776F" transform="matrix(1 0 0 1 714 743)"/></g></svg>