<svg width="371" height="371" xmlns="http://www.w3.org/2000/svg" xmlns:xlink="http://www.w3.org/1999/xlink" xml:space="preserve" overflow="hidden"><g transform="translate(-1746 -743)"><path d="M2089.53 887.838C2083.44 881.476 2077.14 874.92 2074.77 869.154 2072.57 863.874 2072.44 855.121 2072.31 846.643 2072.07 830.882 2071.81 813.022 2059.4 800.604 2046.98 788.186 2029.12 787.928 2013.36 787.685 2004.88 787.556 1996.13 787.427 1990.85 785.231 1985.1 782.857 1978.52 776.559 1972.16 770.471 1961.02 759.765 1948.36 747.637 1931.5 747.637 1914.64 747.637 1902 759.765 1890.84 770.471 1884.48 776.559 1877.92 782.857 1872.15 785.231 1866.91 787.427 1858.12 787.556 1849.64 787.685 1833.88 787.928 1816.02 788.186 1803.6 800.604 1791.19 813.022 1791.01 830.882 1790.69 846.643 1790.56 855.121 1790.43 863.874 1788.23 869.154 1785.86 874.903 1779.56 881.476 1773.47 887.838 1762.76 898.98 1750.64 911.641 1750.64 928.5 1750.64 945.359 1762.76 958.003 1773.47 969.162 1779.56 975.524 1785.86 982.081 1788.23 987.846 1790.43 993.126 1790.56 1001.88 1790.69 1010.36 1790.93 1026.12 1791.19 1043.98 1803.6 1056.4 1816.02 1068.81 1833.88 1069.07 1849.64 1069.31 1858.12 1069.44 1866.87 1069.57 1872.15 1071.77 1877.9 1074.14 1884.48 1080.44 1890.84 1086.53 1901.98 1097.24 1914.64 1109.36 1931.5 1109.36 1948.36 1109.36 1961 1097.24 1972.16 1086.53 1978.52 1080.44 1985.08 1074.14 1990.85 1071.77 1996.13 1069.57 2004.88 1069.44 2013.36 1069.31 2029.12 1069.07 2046.98 1068.81 2059.4 1056.4 2071.81 1043.98 2072.07 1026.12 2072.31 1010.36 2072.44 1001.88 2072.57 993.126 2074.77 987.846 2077.14 982.096 2083.44 975.524 2089.53 969.162 2100.24 958.02 2112.36 945.359 2112.36 928.5 2112.36 911.641 2100.24 898.997 2089.53 887.838ZM2005.23 898.884 1914.8 989.315C1913.6 990.516 1912.18 991.469 1910.61 992.119 1909.04 992.769 1907.36 993.104 1905.66 993.104 1903.96 993.104 1902.28 992.769 1900.72 992.119 1899.15 991.469 1897.72 990.516 1896.52 989.315L1857.77 950.559C1856.57 949.359 1855.61 947.933 1854.96 946.365 1854.31 944.797 1853.98 943.116 1853.98 941.419 1853.98 939.721 1854.31 938.04 1854.96 936.472 1855.61 934.904 1856.57 933.479 1857.77 932.279 1860.19 929.855 1863.48 928.493 1866.91 928.493 1868.6 928.493 1870.28 928.827 1871.85 929.477 1873.42 930.126 1874.85 931.078 1876.05 932.279L1905.66 961.911 1986.95 880.604C1988.15 879.403 1989.58 878.451 1991.15 877.802 1992.72 877.152 1994.4 876.818 1996.09 876.818 1997.79 876.818 1999.47 877.152 2001.04 877.802 2002.61 878.451 2004.03 879.403 2005.23 880.604 2006.43 881.804 2007.39 883.229 2008.04 884.797 2008.69 886.365 2009.02 888.046 2009.02 889.744 2009.02 891.441 2008.69 893.122 2008.04 894.69 2007.39 896.259 2006.43 897.683 2005.23 898.884Z" fill="#A4776F"/></g></svg>