<svg width="32" height="33" viewBox="0 0 32 33" fill="none" xmlns="http://www.w3.org/2000/svg">
<rect x="0.25" y="0.75" width="31.5" height="31.5" rx="15.75" stroke="#EAECEE" stroke-width="0.5"/>
<path d="M16 16C15.337 16 14.7011 15.7366 14.2322 15.2678C13.7634 14.7989 13.5 14.163 13.5 13.5C13.5 12.837 13.7634 12.2011 14.2322 11.7322C14.7011 11.2634 15.337 11 16 11C16.663 11 17.2989 11.2634 17.7678 11.7322C18.2366 12.2011 18.5 12.837 18.5 13.5C18.5 13.8283 18.4353 14.1534 18.3097 14.4567C18.1841 14.76 17.9999 15.0356 17.7678 15.2678C17.5356 15.4999 17.26 15.6841 16.9567 15.8097C16.6534 15.9353 16.3283 16 16 16ZM16 6.5C14.1435 6.5 12.363 7.2375 11.0503 8.55025C9.7375 9.86301 9 11.6435 9 13.5C9 18.75 16 26.5 16 26.5C16 26.5 23 18.75 23 13.5C23 11.6435 22.2625 9.86301 20.9497 8.55025C19.637 7.2375 17.8565 6.5 16 6.5Z" fill="#4C8D91"/>
</svg>
