<svg width="32" height="33" viewBox="0 0 32 33" fill="none" xmlns="http://www.w3.org/2000/svg">
<rect x="0.25" y="0.75" width="31.5" height="31.5" rx="15.75" stroke="#EAECEE" stroke-width="0.5"/>
<path d="M19.5569 18.406L19.1019 18.859C19.1019 18.859 18.0189 19.935 15.0639 16.997C12.1089 14.059 13.1919 12.983 13.1919 12.983L13.4779 12.697C14.1849 11.995 14.2519 10.867 13.6349 10.043L12.3749 8.35998C11.6109 7.33998 10.1359 7.20498 9.26086 8.07498L7.69086 9.63498C7.25786 10.067 6.96786 10.625 7.00286 11.245C7.09286 12.832 7.81086 16.245 11.8149 20.227C16.0619 24.449 20.0469 24.617 21.6759 24.465C22.1919 24.417 22.6399 24.155 23.0009 23.795L24.4209 22.383C25.3809 21.43 25.1109 19.795 23.8829 19.128L21.9729 18.089C21.1669 17.652 20.1869 17.78 19.5569 18.406Z" fill="#4C8D91"/>
</svg>
