<svg width="32" height="33" viewBox="0 0 32 33" fill="none" xmlns="http://www.w3.org/2000/svg">
<rect x="0.25" y="0.75" width="31.5" height="31.5" rx="15.75" stroke="#EAECEE" stroke-width="0.5"/>
<path fill-rule="evenodd" clip-rule="evenodd" d="M24.8 8.5H7.2C6.54 8.5 6 9.04 6 9.7V22.1C6 23.42 7.08 24.5 8.4 24.5H23.6C24.92 24.5 26 23.42 26 22.1V9.7C26 9.04 25.46 8.5 24.8 8.5ZM9.65 10.8C9.5502 10.7146 9.43456 10.6498 9.30968 10.6091C9.18481 10.5684 9.05315 10.5528 8.92222 10.563C8.79129 10.5732 8.66365 10.6091 8.5466 10.6686C8.42954 10.7282 8.32536 10.8102 8.24 10.91C8.15464 11.0098 8.08978 11.1254 8.04911 11.2503C8.00844 11.3752 7.99276 11.5069 8.00298 11.6378C8.01319 11.7687 8.0491 11.8963 8.10864 12.0134C8.16818 12.1305 8.2502 12.2346 8.35 12.32L15.22 18.21C15.4378 18.3948 15.7144 18.4959 16 18.495C16.2858 18.4956 16.5623 18.3942 16.78 18.209L23.65 12.319C23.7554 12.2354 23.8428 12.1315 23.9071 12.0133C23.9713 11.8952 24.0111 11.7653 24.024 11.6314C24.0369 11.4975 24.0227 11.3624 23.9821 11.2342C23.9416 11.1059 23.8756 10.9872 23.7882 10.885C23.7007 10.7829 23.5935 10.6994 23.473 10.6397C23.3525 10.5799 23.2212 10.545 23.0869 10.5372C22.9527 10.5294 22.8182 10.5487 22.6916 10.594C22.565 10.6393 22.4488 10.7097 22.35 10.801L16 16.244L9.65 10.8Z" fill="#4C8D91"/>
</svg>
