<svg width="32" height="33" viewBox="0 0 32 33" fill="none" xmlns="http://www.w3.org/2000/svg">
<rect x="0.25" y="0.75" width="31.5" height="31.5" rx="15.75" stroke="#EAECEE" stroke-width="0.5"/>
<path d="M16 6.5C21.523 6.5 26 10.977 26 16.5C26 22.023 21.523 26.5 16 26.5C10.477 26.5 6 22.023 6 16.5C6 10.977 10.477 6.5 16 6.5ZM16 10.5C15.7348 10.5 15.4804 10.6054 15.2929 10.7929C15.1054 10.9804 15 11.2348 15 11.5V16.5C15.0001 16.7652 15.1055 17.0195 15.293 17.207L18.293 20.207C18.4816 20.3892 18.7342 20.49 18.9964 20.4877C19.2586 20.4854 19.5094 20.3802 19.6948 20.1948C19.8802 20.0094 19.9854 19.7586 19.9877 19.4964C19.99 19.2342 19.8892 18.9816 19.707 18.793L17 16.086V11.5C17 11.2348 16.8946 10.9804 16.7071 10.7929C16.5196 10.6054 16.2652 10.5 16 10.5Z" fill="#4C8D91"/>
</svg>
