<svg width="371" height="371" xmlns="http://www.w3.org/2000/svg" xmlns:xlink="http://www.w3.org/1999/xlink" xml:space="preserve" overflow="hidden"><g transform="translate(-2244 -186)"><path d="M2429.5 188.898C2530.35 188.898 2612.1 270.652 2612.1 371.5L2612.1 371.5C2612.1 472.348 2530.35 554.101 2429.5 554.101L2429.5 554.101C2328.65 554.101 2246.9 472.348 2246.9 371.5L2246.9 371.5C2246.9 270.652 2328.65 188.898 2429.5 188.898Z" stroke="#EAECEE" stroke-width="5.79687" fill="none"/><path d="M2435.2 480.267 2435.09 480.286 2434.4 480.625 2434.21 480.663 2434.08 480.625 2433.39 480.286C2433.29 480.254 2433.21 480.27 2433.16 480.335L2433.12 480.431 2432.95 484.567 2433 484.759 2433.1 484.886 2434.1 485.6 2434.25 485.639 2434.37 485.6 2435.37 484.886 2435.49 484.73 2435.53 484.567 2435.36 480.441C2435.33 480.337 2435.28 480.279 2435.2 480.267ZM2437.76 479.176 2437.63 479.194 2435.84 480.093 2435.75 480.19 2435.72 480.296 2435.89 484.451 2435.94 484.567 2436.02 484.634 2437.96 485.533C2438.08 485.565 2438.18 485.539 2438.24 485.455L2438.28 485.32 2437.95 479.388C2437.92 479.272 2437.85 479.201 2437.76 479.176ZM2430.85 479.194C2430.81 479.169 2430.76 479.161 2430.71 479.171 2430.66 479.181 2430.62 479.212 2430.59 479.252L2430.53 479.388 2430.2 485.32C2430.21 485.436 2430.26 485.513 2430.37 485.552L2430.51 485.533 2432.45 484.634 2432.55 484.556 2432.59 484.451 2432.75 480.296 2432.72 480.18 2432.63 480.083 2430.85 479.194Z" fill="#A4776F"/><path d="M2429.49 274.883C2482.85 274.883 2526.11 318.137 2526.11 371.498 2526.11 424.858 2482.85 468.113 2429.49 468.113 2376.13 468.113 2332.88 424.858 2332.88 371.498 2332.88 318.137 2376.13 274.883 2429.49 274.883ZM2429.49 313.529C2426.93 313.529 2424.47 314.547 2422.66 316.359 2420.85 318.171 2419.83 320.629 2419.83 323.191L2419.83 371.498C2419.83 374.06 2420.85 376.518 2422.66 378.329L2451.65 407.313C2453.47 409.073 2455.91 410.047 2458.44 410.025 2460.97 410.003 2463.4 408.987 2465.19 407.196 2466.98 405.404 2468 402.98 2468.02 400.447 2468.04 397.914 2467.07 395.473 2465.31 393.652L2439.15 367.498 2439.15 323.191C2439.15 320.629 2438.14 318.171 2436.32 316.359 2434.51 314.547 2432.06 313.529 2429.49 313.529Z" fill="#A4776F"/></g></svg>