<svg width="32" height="32" viewBox="0 0 32 32" fill="none" xmlns="http://www.w3.org/2000/svg">
<rect x="0.25" y="0.25" width="31.5" height="31.5" rx="15.75" stroke="#EAECEE" stroke-width="0.5"/>
<path d="M16.4914 25.3815L16.4822 25.3832L16.423 25.4124L16.4064 25.4157L16.3947 25.4124L16.3355 25.3832C16.3267 25.3804 16.32 25.3818 16.3155 25.3874L16.3122 25.3957L16.298 25.7524L16.3022 25.769L16.3105 25.7799L16.3972 25.8415L16.4097 25.8449L16.4197 25.8415L16.5064 25.7799L16.5164 25.7665L16.5197 25.7524L16.5055 25.3965C16.5033 25.3876 16.4986 25.3826 16.4914 25.3815ZM16.7122 25.2874L16.7014 25.289L16.5472 25.3665L16.5389 25.3749L16.5364 25.384L16.5514 25.7424L16.5555 25.7524L16.5622 25.7582L16.7297 25.8357C16.7403 25.8385 16.7483 25.8363 16.7539 25.829L16.7572 25.8174L16.7289 25.3057C16.7261 25.2957 16.7205 25.2896 16.7122 25.2874ZM16.1164 25.289C16.1127 25.2868 16.1083 25.2861 16.1041 25.287C16.0999 25.2879 16.0963 25.2905 16.0939 25.294L16.0889 25.3057L16.0605 25.8174C16.0611 25.8274 16.0658 25.834 16.0747 25.8374L16.0872 25.8357L16.2547 25.7582L16.263 25.7515L16.2664 25.7424L16.2805 25.384L16.278 25.374L16.2697 25.3657L16.1164 25.289Z" fill="#4C8D91"/>
<path d="M15.9993 7.6665C20.6018 7.6665 24.3327 11.3973 24.3327 15.9998C24.3327 20.6023 20.6018 24.3332 15.9993 24.3332C11.3968 24.3332 7.66602 20.6023 7.66602 15.9998C7.66602 11.3973 11.3968 7.6665 15.9993 7.6665ZM15.9993 10.9998C15.7783 10.9998 15.5664 11.0876 15.4101 11.2439C15.2538 11.4002 15.166 11.6122 15.166 11.8332V15.9998C15.1661 16.2208 15.2539 16.4328 15.4102 16.589L17.9102 19.089C18.0674 19.2408 18.2779 19.3248 18.4964 19.3229C18.7148 19.321 18.9239 19.2334 19.0784 19.0789C19.2329 18.9243 19.3205 18.7153 19.3224 18.4968C19.3243 18.2783 19.2403 18.0678 19.0885 17.9107L16.8327 15.6548V11.8332C16.8327 11.6122 16.7449 11.4002 16.5886 11.2439C16.4323 11.0876 16.2204 10.9998 15.9993 10.9998Z" fill="#4C8D91"/>
</svg>
