<svg width="20" height="20" viewBox="0 0 20 20" fill="none" xmlns="http://www.w3.org/2000/svg">
<path d="M10.4914 19.3815L10.4822 19.3832L10.423 19.4124L10.4064 19.4157L10.3947 19.4124L10.3355 19.3832C10.3267 19.3804 10.32 19.3818 10.3155 19.3874L10.3122 19.3957L10.298 19.7524L10.3022 19.769L10.3105 19.7799L10.3972 19.8415L10.4097 19.8449L10.4197 19.8415L10.5064 19.7799L10.5164 19.7665L10.5197 19.7524L10.5055 19.3965C10.5033 19.3876 10.4986 19.3826 10.4914 19.3815ZM10.7122 19.2874L10.7014 19.289L10.5472 19.3665L10.5389 19.3749L10.5364 19.384L10.5514 19.7424L10.5555 19.7524L10.5622 19.7582L10.7297 19.8357C10.7403 19.8385 10.7483 19.8363 10.7539 19.829L10.7572 19.8174L10.7289 19.3057C10.7261 19.2957 10.7205 19.2896 10.7122 19.2874ZM10.1164 19.289C10.1127 19.2868 10.1083 19.2861 10.1041 19.287C10.0999 19.2879 10.0963 19.2905 10.0939 19.294L10.0889 19.3057L10.0605 19.8174C10.0611 19.8274 10.0658 19.834 10.0747 19.8374L10.0872 19.8357L10.2547 19.7582L10.263 19.7515L10.2664 19.7424L10.2805 19.384L10.278 19.374L10.2697 19.3657L10.1164 19.289Z" fill="#7B7D7F"/>
<path d="M9.99935 1.6665C14.6018 1.6665 18.3327 5.39734 18.3327 9.99984C18.3327 14.6023 14.6018 18.3332 9.99935 18.3332C5.39685 18.3332 1.66602 14.6023 1.66602 9.99984C1.66602 5.39734 5.39685 1.6665 9.99935 1.6665ZM9.99935 4.99984C9.77834 4.99984 9.56637 5.08764 9.41009 5.24392C9.25381 5.4002 9.16602 5.61216 9.16602 5.83317V9.99984C9.16606 10.2208 9.25389 10.4328 9.41018 10.589L11.9102 13.089C12.0674 13.2408 12.2779 13.3248 12.4964 13.3229C12.7148 13.321 12.9239 13.2334 13.0784 13.0789C13.2329 12.9243 13.3205 12.7153 13.3224 12.4968C13.3243 12.2783 13.2403 12.0678 13.0885 11.9107L10.8327 9.65484V5.83317C10.8327 5.61216 10.7449 5.4002 10.5886 5.24392C10.4323 5.08764 10.2204 4.99984 9.99935 4.99984Z" fill="#7B7D7F"/>
</svg>
