<svg fill="none" xmlns="http://www.w3.org/2000/svg" viewBox="0 0 32 32">
  <rect x=".25" y=".25" width="31.5" height="31.5" rx="15.75" stroke="#EAECEE" stroke-width=".5"/>
  <path d="M16 7a2.88 2.88 0 012.04.848l.629.628c.202.201.475.314.76.314h.9a2.88 2.88 0 012.881 2.88v.9c0 .285.113.559.312.76l.629.628a2.88 2.88 0 01.002 4.083l-.629.628a1.08 1.08 0 00-.314.76v.9a2.88 2.88 0 01-2.88 2.881h-.9a1.08 1.08 0 00-.76.312l-.628.629a2.882 2.882 0 01-4.083.002l-.628-.629a1.08 1.08 0 00-.76-.314h-.9a2.88 2.88 0 01-2.881-2.88v-.9a1.08 1.08 0 00-.312-.76l-.629-.627a2.881 2.881 0 01-.002-4.083l.629-.629a1.08 1.08 0 00.314-.76v-.9l.004-.164A2.88 2.88 0 0111.67 8.79h.9c.285 0 .557-.112.76-.312l.628-.628A2.88 2.88 0 0116 7zm2.241 9.891a1.35 1.35 0 100 2.7 1.35 1.35 0 000-2.7zm1.087-4.236a.9.9 0 00-1.273 0l-5.4 5.4a.9.9 0 001.272 1.273l5.4-5.4a.9.9 0 000-1.274zm-5.587-.264a1.35 1.35 0 100 2.7 1.35 1.35 0 000-2.7z" fill="#9a7f71"/>
</svg>
