<svg width="20" height="20" viewBox="0 0 20 20" fill="none" xmlns="http://www.w3.org/2000/svg">
<path d="M17.5 5.44992V2.91658C17.5 2.68325 17.3167 2.49992 17.0833 2.49992H14.55C14.4417 2.49992 14.3333 2.54158 14.2583 2.62492L5.15833 11.7166L8.28333 14.8416L17.375 5.74992C17.4583 5.66658 17.5 5.56658 17.5 5.44992ZM2.74167 14.1332C2.66441 14.2103 2.60312 14.3019 2.56131 14.4027C2.51949 14.5035 2.49796 14.6116 2.49796 14.7207C2.49796 14.8299 2.51949 14.938 2.56131 15.0388C2.60312 15.1396 2.66441 15.2312 2.74167 15.3082L4.69167 17.2582C4.76876 17.3355 4.86033 17.3968 4.96115 17.4386C5.06196 17.4804 5.17002 17.502 5.27917 17.502C5.38831 17.502 5.49638 17.4804 5.59719 17.4386C5.698 17.3968 5.78957 17.3355 5.86667 17.2582L7.39167 15.7332L4.26667 12.6082L2.74167 14.1332Z" fill="#7B7D7F"/>
</svg>
