<svg width="20" height="20" viewBox="0 0 20 20" fill="none" xmlns="http://www.w3.org/2000/svg">
<path fill-rule="evenodd" clip-rule="evenodd" d="M17.3327 3.3335H2.66602C2.11602 3.3335 1.66602 3.7835 1.66602 4.3335V14.6668C1.66602 15.7668 2.56602 16.6668 3.66602 16.6668H16.3327C17.4327 16.6668 18.3327 15.7668 18.3327 14.6668V4.3335C18.3327 3.7835 17.8827 3.3335 17.3327 3.3335ZM4.70768 5.25016C4.62451 5.17903 4.52815 5.12498 4.42408 5.09109C4.32002 5.0572 4.21031 5.04413 4.1012 5.05265C3.99209 5.06116 3.88572 5.09108 3.78818 5.14069C3.69063 5.19031 3.60381 5.25866 3.53268 5.34183C3.46155 5.425 3.4075 5.52137 3.3736 5.62543C3.33971 5.72949 3.32665 5.83921 3.33517 5.94831C3.34368 6.05742 3.3736 6.16379 3.42321 6.26133C3.47283 6.35888 3.54118 6.4457 3.62435 6.51683L9.34935 11.4252C9.53085 11.5792 9.76132 11.6634 9.99935 11.6627C10.2375 11.6631 10.468 11.5786 10.6493 11.4243L16.3743 6.516C16.4622 6.44635 16.535 6.35971 16.5886 6.26126C16.6421 6.1628 16.6753 6.05455 16.686 5.94299C16.6968 5.83143 16.6849 5.71885 16.6511 5.61198C16.6174 5.50511 16.5624 5.40615 16.4895 5.32103C16.4166 5.2359 16.3272 5.16635 16.2268 5.11655C16.1264 5.06674 16.017 5.0377 15.9051 5.03116C15.7933 5.02463 15.6812 5.04072 15.5757 5.0785C15.4702 5.11627 15.3733 5.17494 15.291 5.251L9.99935 9.78683L4.70768 5.25016Z" fill="#7B7D7F"/>
</svg>
