<svg fill="none" xmlns="http://www.w3.org/2000/svg" viewBox="0 0 73 72">
  <rect x="4.5" y="4" width="64" height="64" rx="32" fill="#ECF6F6"/>
  <rect x="4.5" y="4" width="64" height="64" rx="32" stroke="#ECF6F6" stroke-opacity=".4" stroke-width="8"/>
  <path d="M25.83 57.536h21.334c4.159 0 6.228-2.11 6.228-6.288V33.007c0-2.592-.281-3.717-1.888-5.364l-11.09-11.27c-1.526-1.568-2.772-1.909-5.042-1.909H25.83c-4.139 0-6.228 2.13-6.228 6.309v30.475c0 4.198 2.09 6.288 6.228 6.288zm.16-3.234c-2.07 0-3.154-1.106-3.154-3.114V20.833c0-1.989 1.085-3.135 3.174-3.135h8.92v11.673c0 2.531 1.286 3.776 3.776 3.776h11.452v18.04c0 2.009-1.066 3.115-3.154 3.115H25.99zm13.078-24.189c-.783 0-1.106-.32-1.106-1.124V18.32l11.572 11.793H39.068zm4.822 8.559H28.64c-.723 0-1.245.542-1.245 1.225 0 .703.523 1.246 1.246 1.246H43.89a1.227 1.227 0 001.245-1.246c0-.683-.543-1.225-1.245-1.225zm0 7.011H28.64c-.723 0-1.245.562-1.245 1.265 0 .683.523 1.206 1.246 1.206H43.89c.702 0 1.245-.523 1.245-1.206 0-.703-.543-1.265-1.245-1.265z" fill="#DAAE6F"/>
</svg>
