<svg width="371" height="371" xmlns="http://www.w3.org/2000/svg" xmlns:xlink="http://www.w3.org/1999/xlink" xml:space="preserve" overflow="hidden"><g transform="translate(-1746 -186)"><path d="M185.5 2.89844C286.348 2.89844 368.101 84.6519 368.101 185.5L368.101 185.5C368.101 286.348 286.348 368.101 185.5 368.101L185.5 368.101C84.6519 368.101 2.89844 286.348 2.89844 185.5L2.89844 185.5C2.89844 84.6519 84.6519 2.89844 185.5 2.89844Z" stroke="#EAECEE" stroke-width="5.79687" fill="none" transform="matrix(1 0 0 1 1746 186)"/><path d="M231.875 173.906C251.121 173.906 266.54 158.371 266.54 139.125 266.54 119.879 251.121 104.344 231.875 104.344 212.629 104.344 197.094 119.879 197.094 139.125 197.094 158.371 212.629 173.906 231.875 173.906ZM139.125 173.906C158.371 173.906 173.79 158.371 173.79 139.125 173.79 119.879 158.371 104.344 139.125 104.344 119.879 104.344 104.344 119.879 104.344 139.125 104.344 158.371 119.879 173.906 139.125 173.906ZM139.125 197.094C112.112 197.094 57.9687 210.658 57.9687 237.672L57.9687 266.656 220.281 266.656 220.281 237.672C220.281 210.658 166.138 197.094 139.125 197.094ZM231.875 197.094C228.513 197.094 224.687 197.326 220.629 197.673 234.078 207.412 243.469 220.513 243.469 237.672L243.469 266.656 313.031 266.656 313.031 237.672C313.031 210.658 258.888 197.094 231.875 197.094Z" fill="#A4776F" transform="matrix(1 0 0 1 1746 186)"/></g></svg>