<svg fill="none" xmlns="http://www.w3.org/2000/svg" viewBox="0 0 32 32">
  <rect x=".25" y=".25" width="31.5" height="31.5" rx="15.75" stroke="#EAECEE" stroke-width=".5"></rect>
  <path d="M20 15c1.66 0 2.99-1.34 2.99-3S21.66 9 20 9c-1.66 0-3 1.34-3 3s1.34 3 3 3zm-8 0c1.66 0 2.99-1.34 2.99-3S13.66 9 12 9c-1.66 0-3 1.34-3 3s1.34 3 3 3zm0 2c-2.33 0-7 1.17-7 3.5V23h14v-2.5c0-2.33-4.67-3.5-7-3.5zm8 0c-.29 0-.62.02-.97.05 1.16.84 1.97 1.97 1.97 3.45V23h6v-2.5c0-2.33-4.67-3.5-7-3.5z" fill="#4C8D91"></path>
</svg>
