<svg width="371" height="371" xmlns="http://www.w3.org/2000/svg" xmlns:xlink="http://www.w3.org/1999/xlink" xml:space="preserve" overflow="hidden"><g transform="translate(-1212 -743)"><path d="M185.5 2.89844C286.348 2.89844 368.101 84.6519 368.101 185.5L368.101 185.5C368.101 286.348 286.348 368.101 185.5 368.101L185.5 368.101C84.6519 368.101 2.89844 286.348 2.89844 185.5L2.89844 185.5C2.89844 84.6519 84.6519 2.89844 185.5 2.89844Z" stroke="#EAECEE" stroke-width="5.79687" fill="none" transform="matrix(1 0 0 1 1212 743)"/><path d="M192.354 316.021 192.227 316.044 191.403 316.45 191.172 316.497 191.009 316.45 190.186 316.044C190.063 316.006 189.97 316.026 189.908 316.102L189.862 316.218 189.664 321.18 189.722 321.412 189.838 321.563 191.044 322.421 191.218 322.467 191.357 322.421 192.563 321.563 192.702 321.378 192.748 321.18 192.551 316.23C192.521 316.107 192.455 316.037 192.354 316.021ZM195.427 314.711 195.276 314.734 193.131 315.813 193.015 315.928 192.98 316.056 193.189 321.041 193.247 321.18 193.34 321.262 195.67 322.34C195.817 322.379 195.93 322.348 196.006 322.247L196.053 322.085 195.658 314.966C195.62 314.827 195.542 314.742 195.427 314.711ZM187.137 314.734C187.086 314.704 187.025 314.694 186.967 314.706 186.909 314.719 186.858 314.755 186.824 314.804L186.754 314.966 186.36 322.085C186.368 322.224 186.434 322.317 186.557 322.363L186.731 322.34 189.062 321.262 189.177 321.169 189.224 321.041 189.421 316.056 189.386 315.917 189.27 315.801 187.137 314.734Z" fill="#A4776F" transform="matrix(1 0 0 1 1212 743)"/><path d="M185.5 92.75C160.902 92.75 137.309 102.522 119.915 119.915 102.522 137.309 92.75 160.902 92.75 185.5L92.75 247.333C92.75 255.533 96.0072 263.397 101.805 269.195 107.603 274.992 115.467 278.25 123.667 278.25L137.909 278.25C141.737 278.25 145.49 277.183 148.747 275.171 152.003 273.157 154.634 270.277 156.345 266.852L158.149 263.245C154.816 260.918 151.698 258.297 148.832 255.413 137.506 244.015 128.819 227.279 128.819 206.111 128.819 198.536 130.097 191.004 132.416 183.881 133.446 180.719 136.301 180.348 139.125 180.348 156.541 180.348 171.948 171.701 181.284 158.448 181.761 157.771 182.392 157.219 183.126 156.839 183.858 156.458 184.673 156.259 185.5 156.259 186.327 156.259 187.142 156.458 187.874 156.839 188.608 157.219 189.239 157.771 189.715 158.448 194.47 165.213 200.783 170.734 208.121 174.546 215.458 178.358 223.606 180.348 231.875 180.348 234.699 180.348 237.564 180.719 238.584 183.881 240.939 191.058 242.153 198.559 242.181 206.111 242.181 227.288 233.493 244.015 222.168 255.413 219.23 258.37 216.087 260.988 212.851 263.245L214.655 266.852C216.366 270.277 218.997 273.157 222.253 275.171 225.51 277.183 229.263 278.25 233.091 278.25L247.333 278.25C255.533 278.25 263.397 274.992 269.195 269.195 274.992 263.397 278.25 255.533 278.25 247.333L278.25 185.5C278.25 160.902 268.478 137.309 251.085 119.915 233.691 102.522 210.098 92.75 185.5 92.75Z" fill="#A4776F" transform="matrix(1 0 0 1 1212 743)"/></g></svg>