<svg width="32" height="32" viewBox="0 0 32 32" fill="none" xmlns="http://www.w3.org/2000/svg">
<rect x="0.25" y="0.25" width="31.5" height="31.5" rx="15.75" stroke="#EAECEE" stroke-width="0.5"/>
<path fill-rule="evenodd" clip-rule="evenodd" d="M16.5912 27.2579L16.5802 27.2599L16.5092 27.2949L16.4892 27.2989L16.4752 27.2949L16.4042 27.2599C16.3936 27.2566 16.3856 27.2583 16.3802 27.2649L16.3762 27.2749L16.3592 27.7029L16.3642 27.7229L16.3742 27.7359L16.4782 27.8099L16.4932 27.8139L16.5052 27.8099L16.6092 27.7359L16.6212 27.7199L16.6252 27.7029L16.6082 27.2759C16.6056 27.2653 16.5999 27.2593 16.5912 27.2579ZM16.8562 27.1449L16.8432 27.1469L16.6582 27.2399L16.6482 27.2499L16.6452 27.2609L16.6632 27.6909L16.6682 27.7029L16.6762 27.7099L16.8772 27.8029C16.8899 27.8063 16.8996 27.8036 16.9062 27.7949L16.9102 27.7809L16.8762 27.1669C16.8729 27.1549 16.8662 27.1476 16.8562 27.1449ZM16.1412 27.1469C16.1368 27.1443 16.1315 27.1434 16.1265 27.1445C16.1215 27.1456 16.1171 27.1487 16.1142 27.1529L16.1082 27.1669L16.0742 27.7809C16.0749 27.7929 16.0806 27.8009 16.0912 27.8049L16.1062 27.8029L16.3072 27.7099L16.3172 27.7019L16.3212 27.6909L16.3382 27.2609L16.3352 27.2489L16.3252 27.2389L16.1412 27.1469Z" fill="#9a7f71"/>
<path fill-rule="evenodd" clip-rule="evenodd" d="M11.4757 9.70842C12.5735 8.61895 14.0928 8 15.9984 8C17.9039 8 19.4225 8.61974 20.5211 9.70842C21.4474 10.6266 22.0276 11.8321 22.3241 13.1608C22.3684 13.1687 22.4122 13.1787 22.4555 13.1908C23.1518 13.3739 23.6006 13.9139 23.8193 14.4934C24.0381 15.0745 24.0589 15.7605 23.8778 16.4268C23.6238 17.3608 22.9443 18.2821 21.953 18.5308C20.8697 21.0974 18.4713 23 15.9984 23C13.5255 23 11.1263 21.0958 10.0438 18.53C9.05412 18.2797 8.37619 17.3592 8.12217 16.4268C7.94108 15.7605 7.96191 15.0745 8.18067 14.4926C8.39943 13.9139 8.84818 13.3739 9.54453 13.19C9.58726 13.1789 9.63 13.1695 9.67274 13.1616C9.96923 11.8321 10.5494 10.6274 11.4757 9.70842Z" fill="#9a7f71"/>
</svg>
