<svg width="32" height="32" viewBox="0 0 32 32" fill="none" xmlns="http://www.w3.org/2000/svg">
<rect x="0.25" y="0.25" width="31.5" height="31.5" rx="15.75" stroke="#EAECEE" stroke-width="0.5"/>
<path d="M16.5912 27.2579L16.5802 27.2599L16.5092 27.2949L16.4892 27.2989L16.4752 27.2949L16.4042 27.2599C16.3936 27.2566 16.3856 27.2583 16.3802 27.2649L16.3762 27.2749L16.3592 27.7029L16.3642 27.7229L16.3742 27.7359L16.4782 27.8099L16.4932 27.8139L16.5052 27.8099L16.6092 27.7359L16.6212 27.7199L16.6252 27.7029L16.6082 27.2759C16.6056 27.2653 16.5999 27.2593 16.5912 27.2579ZM16.8562 27.1449L16.8432 27.1469L16.6582 27.2399L16.6482 27.2499L16.6452 27.2609L16.6632 27.6909L16.6682 27.7029L16.6762 27.7099L16.8772 27.8029C16.8899 27.8063 16.8996 27.8036 16.9062 27.7949L16.9102 27.7809L16.8762 27.1669C16.8729 27.1549 16.8662 27.1476 16.8562 27.1449ZM16.1412 27.1469C16.1368 27.1443 16.1315 27.1434 16.1265 27.1445C16.1215 27.1456 16.1171 27.1487 16.1142 27.1529L16.1082 27.1669L16.0742 27.7809C16.0749 27.7929 16.0806 27.8009 16.0912 27.8049L16.1062 27.8029L16.3072 27.7099L16.3172 27.7019L16.3212 27.6909L16.3382 27.2609L16.3352 27.2489L16.3252 27.2389L16.1412 27.1469Z" fill="#4C8D91"/>
<path d="M16 8C13.8783 8 11.8434 8.84285 10.3431 10.3431C8.84285 11.8434 8 13.8783 8 16V21.3333C8 22.0406 8.28095 22.7189 8.78105 23.219C9.28115 23.719 9.95942 24 10.6667 24H11.8951C12.2253 24 12.549 23.908 12.8299 23.7344C13.1108 23.5607 13.3377 23.3123 13.4853 23.0169L13.6409 22.7058C13.3534 22.5051 13.0845 22.279 12.8373 22.0302C11.8604 21.0471 11.1111 19.6036 11.1111 17.7778C11.1111 17.1244 11.2213 16.4747 11.4213 15.8604C11.5102 15.5876 11.7564 15.5556 12 15.5556C13.5022 15.5556 14.8311 14.8098 15.6364 13.6667C15.6775 13.6083 15.7319 13.5607 15.7952 13.5279C15.8584 13.495 15.9287 13.4779 16 13.4779C16.0713 13.4779 16.1416 13.495 16.2048 13.5279C16.2681 13.5607 16.3225 13.6083 16.3636 13.6667C16.7737 14.2502 17.3182 14.7264 17.9511 15.0552C18.584 15.384 19.2868 15.5556 20 15.5556C20.2436 15.5556 20.4907 15.5876 20.5787 15.8604C20.7818 16.4794 20.8865 17.1264 20.8889 17.7778C20.8889 19.6044 20.1396 21.0471 19.1627 22.0302C18.9093 22.2853 18.6382 22.5111 18.3591 22.7058L18.5147 23.0169C18.6623 23.3123 18.8892 23.5607 19.1701 23.7344C19.451 23.908 19.7747 24 20.1049 24H21.3333C22.0406 24 22.7189 23.719 23.219 23.219C23.719 22.7189 24 22.0406 24 21.3333V16C24 13.8783 23.1571 11.8434 21.6569 10.3431C20.1566 8.84285 18.1217 8 16 8Z" fill="#4C8D91"/>
</svg>
