<svg fill="none" xmlns="http://www.w3.org/2000/svg" viewBox="0 0 32 33">
  <rect x=".25" y=".552" width="31.5" height="31.5" rx="15.75" stroke="#EAECEE" stroke-width=".5"/>
  <path d="M13 24.302c-2.233 0-4.125-.775-5.675-2.325C5.775 20.427 5 18.535 5 16.302c0-2.234.775-4.125 2.325-5.675 1.55-1.55 3.442-2.325 5.675-2.325 2.233 0 4.125.775 5.675 2.325 1.55 1.55 2.325 3.441 2.325 5.675 0 2.233-.775 4.125-2.325 5.675-1.55 1.55-3.442 2.325-5.675 2.325zm0-2c1.667 0 3.083-.584 4.25-1.75 1.167-1.167 1.75-2.584 1.75-4.25 0-.184-.008-.359-.025-.525a6.654 6.654 0 00-.075-.525 7.982 7.982 0 01-6.6-2.35 8.12 8.12 0 01-2.337 2.15A8.385 8.385 0 017 16.177c-.033 1.683.533 3.125 1.7 4.325 1.167 1.2 2.6 1.8 4.3 1.8zm-2.5-4a.965.965 0 01-.712-.288.973.973 0 01-.288-.712c0-.283.095-.52.288-.712a.97.97 0 01.712-.288c.282 0 .52.096.713.288.193.192.289.43.287.712a.987.987 0 01-.288.713.953.953 0 01-.712.287zm5 0a.965.965 0 01-.712-.288.973.973 0 01-.288-.712c0-.283.095-.52.288-.712a.97.97 0 01.712-.288c.282 0 .52.096.713.288.193.192.289.43.287.712a.987.987 0 01-.288.713.953.953 0 01-.712.287zm5.5 8v-4.25a.75.75 0 111.5 0v2.15a12.056 12.056 0 002.225-3.675 11.72 11.72 0 00.775-4.225 11.72 11.72 0 00-.775-4.225A12.056 12.056 0 0022.5 8.402v2.15a.75.75 0 01-1.5 0v-4.25h4.25a.75.75 0 010 1.5h-1.275a13.24 13.24 0 012.25 3.975A13.38 13.38 0 0127 16.302a13.38 13.38 0 01-.775 4.525 13.24 13.24 0 01-2.25 3.975h1.275a.75.75 0 110 1.5H21z" fill="#9a7f71"/>
</svg>