<svg width="32" height="32" viewBox="0 0 32 32" fill="none" xmlns="http://www.w3.org/2000/svg">
  <rect x="0.25" y="0.25" width="31.5" height="31.5" rx="15.75" stroke="#EAECEE" stroke-width="0.5"/>
  
  <!-- Centered heart icon -->
  <path 
    d="M16 24C15.6 24 15.2 23.9 14.9 23.6L10 18.9C7.8 16.7 7.8 13.1 10 10.9C11.1 9.8 12.6 9.3 14 9.5C14.6 9.6 15.2 9.9 15.7 10.4C16.2 9.9 16.8 9.6 17.4 9.5C18.8 9.3 20.3 9.8 21.4 10.9C23.6 13.1 23.6 16.7 21.4 18.9L16.5 23.6C16.2 23.9 15.8 24 15.5 24H16Z" 
    fill="#9a7f71"
  />
</svg>
