<svg fill="none" xmlns="http://www.w3.org/2000/svg" viewBox="0 0 32 32">
  <rect x=".25" y=".25" width="31.5" height="31.5" rx="15.75" stroke="#EAECEE" stroke-width=".5"></rect>
  <path d="M19.506 14.463A3.618 3.618 0 0119 12.618V9.5a.5.5 0 01.5-.5.5.5 0 00.5-.5V8a1 1 0 00-1-1h-6a1 1 0 00-1 1v.5a.5.5 0 00.5.5.5.5 0 01.5.5v3.118c0 .65-.175 1.287-.506 1.845L7.14 23.49A1 1 0 008 25h16a1 1 0 00.86-1.51l-5.354-9.027zm-4.706.027a1 1 0 00.2-.6V9.5a.5.5 0 01.5-.5h1a.5.5 0 01.5.5v4.39a1 1 0 00.14.51l1.691 2.844a.5.5 0 01-.43.756h-4.804a.5.5 0 01-.43-.755L14.8 14.49z" fill="#4C8D91"></path>
</svg>
