<svg width="371" height="371" xmlns="http://www.w3.org/2000/svg" xmlns:xlink="http://www.w3.org/1999/xlink" xml:space="preserve" overflow="hidden"><g transform="translate(-1212 -225)"><path d="M1397.5 227.899C1498.35 227.899 1580.1 309.652 1580.1 410.5L1580.1 410.5C1580.1 511.348 1498.35 593.102 1397.5 593.102L1397.5 593.102C1296.65 593.102 1214.9 511.348 1214.9 410.5L1214.9 410.5C1214.9 309.652 1296.65 227.899 1397.5 227.899Z" stroke="#EAECEE" stroke-width="5.79687" fill="none"/><path d="M1438.15 392.681C1434.31 386.206 1432.28 378.817 1432.28 371.29L1432.28 335.141C1432.28 331.939 1434.88 329.344 1438.08 329.344 1441.28 329.344 1443.88 326.749 1443.88 323.547L1443.88 317.75C1443.88 311.347 1438.68 306.156 1432.28 306.156L1362.72 306.156C1356.32 306.156 1351.13 311.347 1351.13 317.75L1351.13 323.547C1351.13 326.749 1353.72 329.344 1356.92 329.344 1360.12 329.344 1362.72 331.939 1362.72 335.141L1362.72 371.29C1362.72 378.826 1360.69 386.211 1356.85 392.681L1294.78 497.337C1291.51 502.845 1293.33 509.957 1298.84 513.223 1300.63 514.284 1302.67 514.843 1304.75 514.844L1490.25 514.844C1496.65 514.843 1501.84 509.651 1501.84 503.248 1501.84 501.168 1501.28 499.126 1500.22 497.337L1438.15 392.681ZM1383.59 392.994C1385.09 390.987 1385.91 388.546 1385.91 386.037L1385.91 335.141C1385.91 331.939 1388.5 329.344 1391.7 329.344L1403.3 329.344C1406.5 329.344 1409.09 331.939 1409.09 335.141L1409.09 386.037C1409.09 388.118 1409.66 390.161 1410.72 391.95L1430.32 424.923C1431.96 427.673 1431.06 431.231 1428.31 432.87 1427.41 433.406 1426.38 433.689 1425.34 433.688L1369.64 433.688C1366.44 433.687 1363.84 431.091 1363.84 427.89 1363.84 426.85 1364.12 425.829 1364.66 424.934L1383.59 392.994Z" fill="#A4776F"/></g></svg>