<svg width="32" height="32" viewBox="0 0 32 32" fill="none" xmlns="http://www.w3.org/2000/svg">
<rect x="0.25" y="0.25" width="31.5" height="31.5" rx="15.75" stroke="#EAECEE" stroke-width="0.5"/>
<path d="M9.5 8C9.36739 8 9.24021 8.05268 9.14645 8.14645C9.05268 8.24021 9 8.36739 9 8.5V11C9 11.5304 9.21071 12.0391 9.58579 12.4142C9.96086 12.7893 10.4696 13 11 13H21C21.5304 13 22.0391 12.7893 22.4142 12.4142C22.7893 12.0391 23 11.5304 23 11V8.5C23 8.36739 22.9473 8.24021 22.8536 8.14645C22.7598 8.05268 22.6326 8 22.5 8H9.5ZM16.5 16H20.5C20.8978 16 21.2794 15.842 21.5607 15.5607C21.842 15.2794 22 14.8978 22 14.5V14H10V14.5C10 14.8978 10.158 15.2794 10.4393 15.5607C10.7206 15.842 11.1022 16 11.5 16H15.5V18.5C15.5 18.6326 15.5527 18.7598 15.6464 18.8536C15.7402 18.9473 15.8674 19 16 19C16.1326 19 16.2598 18.9473 16.3536 18.8536C16.4473 18.7598 16.5 18.6326 16.5 18.5V16ZM11 20.5C11 20.3674 11.0527 20.2402 11.1464 20.1464C11.2402 20.0527 11.3674 20 11.5 20H13C13.1326 20 13.2598 20.0527 13.3536 20.1464C13.4473 20.2402 13.5 20.3674 13.5 20.5C13.5 20.6326 13.4473 20.7598 13.3536 20.8536C13.2598 20.9473 13.1326 21 13 21H11.5C11.3674 21 11.2402 20.9473 11.1464 20.8536C11.0527 20.7598 11 20.6326 11 20.5ZM19 20C18.8674 20 18.7402 20.0527 18.6464 20.1464C18.5527 20.2402 18.5 20.3674 18.5 20.5C18.5 20.6326 18.5527 20.7598 18.6464 20.8536C18.7402 20.9473 18.8674 21 19 21H20.5C20.6326 21 20.7598 20.9473 20.8536 20.8536C20.9473 20.7598 21 20.6326 21 20.5C21 20.3674 20.9473 20.2402 20.8536 20.1464C20.7598 20.0527 20.6326 20 20.5 20H19ZM16.5 20.5C16.5 20.6326 16.4473 20.7598 16.3536 20.8536C16.2598 20.9473 16.1326 21 16 21C15.8674 21 15.7402 20.9473 15.6464 20.8536C15.5527 20.7598 15.5 20.6326 15.5 20.5C15.5 20.3674 15.5527 20.2402 15.6464 20.1464C15.7402 20.0527 15.8674 20 16 20C16.1326 20 16.2598 20.0527 16.3536 20.1464C16.4473 20.2402 16.5 20.3674 16.5 20.5ZM16.5 22.5C16.5 22.3674 16.4473 22.2402 16.3536 22.1464C16.2598 22.0527 16.1326 22 16 22C15.8674 22 15.7402 22.0527 15.6464 22.1464C15.5527 22.2402 15.5 22.3674 15.5 22.5V24.5C15.5 24.6326 15.5527 24.7598 15.6464 24.8536C15.7402 24.9473 15.8674 25 16 25C16.1326 25 16.2598 24.9473 16.3536 24.8536C16.4473 24.7598 16.5 24.6326 16.5 24.5V22.5ZM14.854 21.146C14.9006 21.1924 14.9375 21.2476 14.9627 21.3084C14.9879 21.3691 15.0009 21.4342 15.0009 21.5C15.0009 21.5658 14.9879 21.6309 14.9627 21.6916C14.9375 21.7524 14.9006 21.8076 14.854 21.854L13.354 23.354C13.2601 23.4479 13.1328 23.5006 13 23.5006C12.8672 23.5006 12.7399 23.4479 12.646 23.354C12.5521 23.2601 12.4994 23.1328 12.4994 23C12.4994 22.8672 12.5521 22.7399 12.646 22.646L14.146 21.146C14.1924 21.0994 14.2476 21.0625 14.3084 21.0373C14.3691 21.0121 14.4342 20.9991 14.5 20.9991C14.5658 20.9991 14.6309 21.0121 14.6916 21.0373C14.7524 21.0625 14.8076 21.0994 14.854 21.146ZM17.146 21.854C17.0521 21.7601 16.9994 21.6328 16.9994 21.5C16.9994 21.3672 17.0521 21.2399 17.146 21.146C17.2399 21.0521 17.3672 20.9994 17.5 20.9994C17.6328 20.9994 17.7601 21.0521 17.854 21.146L19.354 22.646C19.4479 22.7399 19.5006 22.8672 19.5006 23C19.5006 23.1328 19.4479 23.2601 19.354 23.354C19.2601 23.4479 19.1328 23.5006 19 23.5006C18.8672 23.5006 18.7399 23.4479 18.646 23.354L17.146 21.854Z" fill="#9a7f71"/>
</svg>
