<svg width="360" height="371" xmlns="http://www.w3.org/2000/svg" xmlns:xlink="http://www.w3.org/1999/xlink" xml:space="preserve" overflow="hidden"><g transform="translate(-2742 -743)"><path d="M179.879 8.43182C277.671 8.43182 356.947 87.708 356.947 185.5L356.947 185.5C356.947 283.292 277.671 362.568 179.879 362.568L179.879 362.568C82.0868 362.568 2.81061 283.292 2.81061 185.5L2.81061 185.5C2.81061 87.708 82.0868 8.43182 179.879 8.43182Z" stroke="#EAECEE" stroke-width="5.62122" fill="none" transform="matrix(1.00067 0 0 1 2742 743)"/><path d="M278.812 95.5607 80.9455 95.5607C73.5255 95.5607 67.4546 101.632 67.4546 109.052L67.4546 248.458C67.4546 263.298 79.5964 275.44 94.4364 275.44L265.321 275.44C280.161 275.44 292.303 263.298 292.303 248.458L292.303 109.052C292.303 101.632 286.232 95.5607 278.812 95.5607ZM108.489 121.418C107.367 120.458 106.067 119.73 104.663 119.272 103.26 118.815 101.779 118.639 100.307 118.754 98.8355 118.868 97.4005 119.272 96.0846 119.941 94.7685 120.611 93.5973 121.533 92.6376 122.655 91.678 123.777 90.9488 125.077 90.4916 126.481 90.0343 127.885 89.8581 129.366 89.973 130.837 90.0878 132.309 90.4915 133.743 91.1608 135.06 91.8302 136.376 92.7523 137.547 93.8743 138.507L171.11 204.725C173.558 206.802 176.668 207.939 179.879 207.929 183.092 207.936 186.201 206.796 188.648 204.713L265.884 138.496C267.068 137.556 268.051 136.388 268.774 135.059 269.496 133.731 269.943 132.271 270.088 130.765 270.233 129.26 270.074 127.741 269.617 126.3 269.162 124.857 268.42 123.523 267.437 122.374 266.454 121.226 265.248 120.287 263.894 119.616 262.539 118.944 261.063 118.551 259.553 118.464 258.044 118.376 256.532 118.593 255.109 119.102 253.686 119.612 252.379 120.403 251.268 121.43L179.879 182.622 108.489 121.418Z" fill="#A4776F" fill-rule="evenodd" transform="matrix(1.00067 0 0 1 2742 743)"/></g></svg>