<svg width="360" height="371" xmlns="http://www.w3.org/2000/svg" xmlns:xlink="http://www.w3.org/1999/xlink" xml:space="preserve" overflow="hidden"><g transform="translate(-120 -743)"><path d="M179.879 8.43182C277.671 8.43182 356.947 87.708 356.947 185.5L356.947 185.5C356.947 283.292 277.671 362.568 179.879 362.568L179.879 362.568C82.0868 362.568 2.81061 283.292 2.81061 185.5L2.81061 185.5C2.81061 87.708 82.0868 8.43182 179.879 8.43182Z" stroke="#EAECEE" stroke-width="5.62122" fill="none" transform="matrix(1.00067 0 0 1 120 743)"/><path d="M179.879 179.879C172.425 179.879 165.276 176.918 160.005 171.647 154.734 166.376 151.773 159.227 151.773 151.773 151.773 144.319 154.734 137.17 160.005 131.898 165.276 126.628 172.425 123.667 179.879 123.667 187.333 123.667 194.482 126.628 199.753 131.898 205.024 137.17 207.985 144.319 207.985 151.773 207.985 155.464 207.258 159.119 205.846 162.528 204.434 165.938 202.363 169.037 199.753 171.647 197.143 174.257 194.044 176.327 190.635 177.739 187.225 179.152 183.57 179.879 179.879 179.879ZM179.879 73.0758C159.007 73.0758 138.99 81.3671 124.232 96.1256 109.473 110.884 101.182 130.901 101.182 151.773 101.182 210.796 179.879 297.924 179.879 297.924 179.879 297.924 258.576 210.796 258.576 151.773 258.576 130.901 250.285 110.884 235.526 96.1256 220.768 81.3671 200.751 73.0758 179.879 73.0758Z" fill="#A4776F" transform="matrix(1.00067 0 0 1 120 743)"/></g></svg>