<svg width="20" height="20" viewBox="0 0 20 20" fill="none" xmlns="http://www.w3.org/2000/svg">
<path fill-rule="evenodd" clip-rule="evenodd" d="M10.0172 2.5C8.13512 2.5 6.42053 3.12167 5.40595 3.62958C5.31428 3.67542 5.22873 3.72014 5.14928 3.76375C4.99178 3.84958 4.85762 3.92958 4.75095 4L5.90512 5.69917L6.44845 5.91542C8.57178 6.98667 11.4193 6.98667 13.543 5.91542L14.1597 5.59542L15.2509 4C15.0247 3.85296 14.7896 3.7198 14.5472 3.60125C13.5376 3.09875 11.8639 2.5 10.0176 2.5M7.33345 4.42333C6.92484 4.34644 6.5212 4.24514 6.1247 4.12C7.07512 3.69792 8.49137 3.25 10.0176 3.25C11.0747 3.25 12.0743 3.465 12.9009 3.7375C11.9322 3.87375 10.8984 4.105 9.91345 4.38958C9.13845 4.61375 8.23262 4.58958 7.33345 4.42333ZM13.9834 6.53333L13.8809 6.585C11.5451 7.76333 8.44678 7.76333 6.11095 6.585L6.01387 6.53583C2.50428 10.3862 -0.174885 17.4988 10.0172 17.4988C20.2093 17.4988 17.4651 10.2542 13.9834 6.53333ZM9.58428 10C9.36327 10 9.15131 10.0878 8.99503 10.2441C8.83875 10.4004 8.75095 10.6123 8.75095 10.8333C8.75095 11.0543 8.83875 11.2663 8.99503 11.4226C9.15131 11.5789 9.36327 11.6667 9.58428 11.6667V10ZM10.4176 9.16667V8.75H9.58428V9.16667C9.14225 9.16667 8.71833 9.34226 8.40577 9.65482C8.09321 9.96738 7.91762 10.3913 7.91762 10.8333C7.91762 11.2754 8.09321 11.6993 8.40577 12.0118C8.71833 12.3244 9.14225 12.5 9.58428 12.5V14.1667C9.22178 14.1667 8.91303 13.9354 8.79803 13.6112C8.78097 13.5582 8.75345 13.5091 8.71709 13.4669C8.68073 13.4247 8.63627 13.3902 8.58635 13.3655C8.53643 13.3408 8.48205 13.3263 8.42644 13.3229C8.37083 13.3196 8.31511 13.3274 8.26258 13.346C8.21005 13.3645 8.16178 13.3935 8.12061 13.431C8.07945 13.4685 8.04623 13.514 8.02293 13.5646C7.99962 13.6152 7.9867 13.6699 7.98493 13.7256C7.98316 13.7813 7.99257 13.8368 8.01262 13.8887C8.1275 14.2138 8.34034 14.4952 8.62181 14.6942C8.90329 14.8932 9.23955 15.0001 9.58428 15V15.4167H10.4176V15C10.8596 15 11.2836 14.8244 11.5961 14.5118C11.9087 14.1993 12.0843 13.7754 12.0843 13.3333C12.0843 12.8913 11.9087 12.4674 11.5961 12.1548C11.2836 11.8423 10.8596 11.6667 10.4176 11.6667V10C10.7801 10 11.0889 10.2312 11.2039 10.5554C11.2209 10.6085 11.2485 10.6575 11.2848 10.6997C11.3212 10.742 11.3656 10.7764 11.4155 10.8012C11.4655 10.8259 11.5198 10.8404 11.5755 10.8437C11.6311 10.8471 11.6868 10.8392 11.7393 10.8207C11.7918 10.8021 11.8401 10.7732 11.8813 10.7357C11.9224 10.6981 11.9557 10.6527 11.979 10.6021C12.0023 10.5515 12.0152 10.4967 12.017 10.4411C12.0187 10.3854 12.0093 10.3299 11.9893 10.2779C11.8744 9.95289 11.6616 9.67149 11.3801 9.47247C11.0986 9.27345 10.7623 9.16661 10.4176 9.16667ZM10.4176 12.5V14.1667C10.6386 14.1667 10.8506 14.0789 11.0069 13.9226C11.1632 13.7663 11.2509 13.5543 11.2509 13.3333C11.2509 13.1123 11.1632 12.9004 11.0069 12.7441C10.8506 12.5878 10.6386 12.5 10.4176 12.5Z" fill="#7B7D7F"/>
</svg>
