<svg width="371" height="372" xmlns="http://www.w3.org/2000/svg" xmlns:xlink="http://www.w3.org/1999/xlink" xml:space="preserve" overflow="hidden"><g transform="translate(-109 -249)"><path d="M240.482 214.963 233.45 221.966C233.45 221.966 216.708 238.599 171.029 193.182 125.349 147.766 142.091 131.133 142.091 131.133L146.512 126.712C157.441 115.86 158.477 98.4229 148.939 85.6852L129.461 59.6688C117.651 43.9013 94.85 41.8145 81.3241 55.2632L57.0544 79.3782C50.361 86.0562 45.878 94.682 46.4191 104.266 47.8104 128.799 58.9094 181.558 120.805 243.113 186.455 308.379 248.058 310.974 273.24 308.626 281.216 307.884 288.141 303.832 293.721 298.267L315.673 276.441C330.513 261.709 326.339 236.435 307.355 226.124L277.831 210.062C265.371 203.308 250.221 205.285 240.482 214.963Z" fill="#A4776F" transform="matrix(1 0 0 1.0027 109 249)"/></g></svg>