<svg width="20" height="20" viewBox="0 0 20 20" fill="none" xmlns="http://www.w3.org/2000/svg">
<path d="M12.964 11.5883L12.5849 11.9658C12.5849 11.9658 11.6824 12.8625 9.21988 10.4141C6.75738 7.96582 7.65988 7.06915 7.65988 7.06915L7.89821 6.83082C8.48738 6.24582 8.54321 5.30582 8.02905 4.61915L6.97905 3.21665C6.34238 2.36665 5.11321 2.25415 4.38405 2.97915L3.07571 4.27915C2.71488 4.63915 2.47321 5.10415 2.50238 5.62082C2.57738 6.94332 3.17571 9.78748 6.51238 13.1058C10.0515 16.6242 13.3724 16.7641 14.7299 16.6375C15.1599 16.5975 15.5332 16.3791 15.834 16.0791L17.0174 14.9025C17.8174 14.1083 17.5924 12.7458 16.569 12.19L14.9774 11.3241C14.3057 10.96 13.489 11.0666 12.964 11.5883Z" fill="#7B7D7F"/>
</svg>
