<svg width="360" height="372" xmlns="http://www.w3.org/2000/svg" xmlns:xlink="http://www.w3.org/1999/xlink" xml:space="preserve" overflow="hidden"><g transform="translate(-714 -213)"><path d="M180 8.4375C277.858 8.4375 357.187 87.767 357.187 185.625L357.187 185.625C357.187 283.483 277.858 362.812 180 362.812L180 362.812C82.142 362.812 2.8125 283.483 2.8125 185.625L2.8125 185.625C2.8125 87.767 82.142 8.4375 180 8.4375Z" stroke="#EAECEE" stroke-width="5.625" fill="none" transform="matrix(1 0 0 1.00202 714 213)"/><path d="M220.015 207.067 214.896 212.164C214.896 212.164 202.713 224.269 169.469 191.216 136.225 158.164 148.409 146.059 148.409 146.059L151.626 142.841C159.58 134.944 160.334 122.254 153.393 112.984L139.218 94.0497C130.623 82.5748 114.029 81.056 104.185 90.8435L86.5221 108.394C81.6509 113.254 78.3884 119.531 78.7822 126.506 79.7947 144.36 87.8722 182.756 132.918 227.554 180.696 275.051 225.528 276.941 243.854 275.231 249.659 274.691 254.699 271.744 258.76 267.694L274.735 251.809C285.535 241.087 282.498 222.694 268.683 215.19L247.195 203.501C238.128 198.585 227.103 200.025 220.015 207.067Z" fill="#A4776F" transform="matrix(1 0 0 1.00202 714 213)"/></g></svg>