<svg width="32" height="32" viewBox="0 0 32 32" fill="none" xmlns="http://www.w3.org/2000/svg">
<rect x="0.25" y="0.25" width="31.5" height="31.5" rx="15.75" stroke="#EAECEE" stroke-width="0.5"/>
<path d="M16 15.3848C15.1753 15.3848 14.469 15.0908 13.881 14.5028C13.293 13.9148 12.9993 13.2088 13 12.3848C13.0007 11.5608 13.2943 10.8541 13.881 10.2648C14.4677 9.67544 15.174 9.38244 16 9.38577C16.826 9.3891 17.5323 9.68244 18.119 10.2658C18.7057 10.8491 18.9993 11.5558 19 12.3858C19.0007 13.2158 18.707 13.9218 18.119 14.5038C17.531 15.0858 16.8247 15.3788 16 15.3848ZM9 22.6158V20.9698C9 20.5571 9.12 20.1711 9.36 19.8118C9.60067 19.4518 9.924 19.1724 10.33 18.9738C11.274 18.5211 12.2187 18.1818 13.164 17.9558C14.1087 17.7291 15.054 17.6158 16 17.6158C16.946 17.6158 17.8917 17.7291 18.837 17.9558C19.7823 18.1824 20.7263 18.5218 21.669 18.9738C22.0757 19.1724 22.399 19.4518 22.639 19.8118C22.8797 20.1711 23 20.5571 23 20.9698V22.6158H9Z" fill="#4C8D91"/>
</svg>
