<svg width="371" height="371" xmlns="http://www.w3.org/2000/svg" xmlns:xlink="http://www.w3.org/1999/xlink" xml:space="preserve" overflow="hidden"><g transform="translate(-2731 -186)"><path d="M2916.5 188.898C3017.35 188.898 3099.1 270.652 3099.1 371.5L3099.1 371.5C3099.1 472.348 3017.35 554.101 2916.5 554.101L2916.5 554.101C2815.65 554.101 2733.9 472.348 2733.9 371.5L2733.9 371.5C2733.9 270.652 2815.65 188.898 2916.5 188.898Z" stroke="#EAECEE" stroke-width="5.79687" fill="none"/><path d="M2886.79 302.717C2900.01 279.01 2906.62 267.156 2916.5 267.156 2926.38 267.156 2932.99 279.01 2946.21 302.717L2949.63 308.852C2953.38 315.593 2955.26 318.963 2958.18 321.185 2961.11 323.408 2964.76 324.232 2972.06 325.881L2978.7 327.383C3004.37 333.195 3017.19 336.096 3020.25 345.915 3023.29 355.723 3014.55 365.96 2997.05 386.422L2992.52 391.712C2987.56 397.524 2985.06 400.436 2983.95 404.025 2982.83 407.625 2983.21 411.506 2983.96 419.259L2984.65 426.323C2987.29 453.63 2988.61 467.278 2980.62 473.341 2972.63 479.403 2960.6 473.873 2936.59 462.812L2930.36 459.953C2923.53 456.802 2920.12 455.237 2916.5 455.237 2912.88 455.237 2909.47 456.802 2902.64 459.953L2896.42 462.812C2872.4 473.873 2860.37 479.403 2852.39 473.351 2844.39 467.278 2845.71 453.63 2848.35 426.323L2849.04 419.27C2849.79 411.506 2850.17 407.625 2849.04 404.035 2847.94 400.436 2845.44 397.524 2840.48 391.723L2835.95 386.422C2818.45 365.971 2809.71 355.734 2812.75 345.915 2815.8 336.096 2828.64 333.185 2854.31 327.383L2860.95 325.881C2868.24 324.232 2871.88 323.408 2874.82 321.185 2877.75 318.963 2879.62 315.593 2883.37 308.852L2886.79 302.717Z" fill="#A4776F"/></g></svg>