<svg width="32" height="32" viewBox="0 0 32 32" fill="none" xmlns="http://www.w3.org/2000/svg">
<rect x="0.25" y="0.25" width="31.5" height="31.5" rx="15.75" stroke="#EAECEE" stroke-width="0.5"/>
<path d="M13.4378 10.0672C14.578 8.02241 15.1477 7 16 7C16.8523 7 17.422 8.02241 18.5622 10.0672L18.8574 10.5964C19.1814 11.1778 19.3434 11.4685 19.5954 11.6602C19.8474 11.8519 20.1624 11.923 20.7924 12.0652L21.3648 12.1948C23.5787 12.6961 24.6848 12.9463 24.9485 13.7932C25.2113 14.6392 24.4571 15.5222 22.9478 17.2871L22.5572 17.7434C22.1289 18.2447 21.9138 18.4958 21.8175 18.8054C21.7212 19.1159 21.7536 19.4507 21.8184 20.1194L21.8778 20.7287C22.1055 23.084 22.2198 24.2612 21.5304 24.7841C20.841 25.307 19.8042 24.83 17.7325 23.876L17.1952 23.6294C16.6066 23.3576 16.3123 23.2226 16 23.2226C15.6877 23.2226 15.3934 23.3576 14.8048 23.6294L14.2684 23.876C12.1958 24.83 11.159 25.307 10.4705 24.785C9.78025 24.2612 9.89454 23.084 10.1222 20.7287L10.1816 20.1203C10.2464 19.4507 10.2788 19.1159 10.1816 18.8063C10.0862 18.4958 9.87114 18.2447 9.44275 17.7443L9.05216 17.2871C7.5429 15.5231 6.78872 14.6401 7.05151 13.7932C7.3143 12.9463 8.42218 12.6952 10.6361 12.1948L11.2085 12.0652C11.8376 11.923 12.1517 11.8519 12.4046 11.6602C12.6575 11.4685 12.8186 11.1778 13.1426 10.5964L13.4378 10.0672Z" fill="#4C8D91"/>
</svg>
