<svg width="32" height="32" viewBox="0 0 32 32" fill="none" xmlns="http://www.w3.org/2000/svg">
<rect x="0.25" y="0.25" width="31.5" height="31.5" rx="15.75" stroke="#EAECEE" stroke-width="0.5"/>
<path d="M13.3464 9.06942L12.2433 10.1938L10.9621 8.88716L12.0276 7.80107L11.2424 7L7 11.3241L7.7852 12.1244L8.85078 11.0383L10.1327 12.3449L9.0296 13.4693L18.5668 23.1901L22.5399 23.2831L24.2244 25L25 24.9145L22.9704 22.8458L22.8792 18.7962L13.3464 9.06942ZM13.3464 10.3505L18.1915 15.2889L15.139 18.4002L13.9056 17.1446L15.4363 15.5845L14.7887 14.9244L13.2581 16.4845L12.1174 15.3219L13.6481 13.7618L13.0005 13.1018L11.4698 14.6619L10.2968 13.4663L13.3464 10.3505Z" fill="#4C8D91"/>
</svg>
