<svg width="20" height="20" viewBox="0 0 20 20" fill="none" xmlns="http://www.w3.org/2000/svg">
<path d="M7.78863 4.22452L6.86938 5.16147L5.80172 4.07263L6.6897 3.16756L6.03536 2.5L2.5 6.10343L3.15433 6.77036L4.04231 5.86528L5.11059 6.95412L4.19133 7.89107L12.139 15.9917L15.4499 16.0693L16.8536 17.5L17.5 17.4287L15.8087 15.7049L15.7326 12.3302L7.78863 4.22452ZM7.78863 5.29211L11.8262 9.40745L9.2825 12.0002L8.2547 10.9538L9.53025 9.65372L8.9906 9.10368L7.71505 10.4038L6.76451 9.43495L8.04007 8.13484L7.50041 7.5848L6.22486 8.88491L5.24734 7.88857L7.78863 5.29211Z" fill="#7B7D7F"/>
</svg>
