<svg width="20" height="20" viewBox="0 0 20 20" fill="none" xmlns="http://www.w3.org/2000/svg">
<path d="M9.99935 9.48747C9.31213 9.48747 8.72352 9.24247 8.23352 8.75247C7.74352 8.26247 7.49879 7.67414 7.49935 6.98747C7.4999 6.3008 7.74463 5.71192 8.23352 5.2208C8.7224 4.72969 9.31102 4.48553 9.99935 4.4883C10.6877 4.49108 11.2763 4.73553 11.7652 5.22164C12.2541 5.70775 12.4988 6.29664 12.4993 6.9883C12.4999 7.67997 12.2552 8.2683 11.7652 8.7533C11.2752 9.2383 10.6866 9.48247 9.99935 9.48747ZM4.16602 15.5133V14.1416C4.16602 13.7977 4.26602 13.4761 4.46602 13.1766C4.66657 12.8766 4.93602 12.6439 5.27435 12.4783C6.06102 12.1011 6.84824 11.8183 7.63602 11.63C8.42324 11.4411 9.21102 11.3466 9.99935 11.3466C10.7877 11.3466 11.5757 11.4411 12.3635 11.63C13.1513 11.8189 13.938 12.1016 14.7235 12.4783C15.0624 12.6439 15.3318 12.8766 15.5318 13.1766C15.7324 13.4761 15.8327 13.7977 15.8327 14.1416V15.5133H4.16602Z" fill="#7B7D7F"/>
</svg>
