<svg fill="none" xmlns="http://www.w3.org/2000/svg" viewBox="0 0 73 72">
  <rect x="4.5" y="4" width="64" height="64" rx="32" fill="#ebdbd6"/>
  <rect x="4.5" y="4" width="64" height="64" rx="32" stroke="#ebdbd6" stroke-opacity=".4" stroke-width="8"/>
  <path d="M56.596 30.83c-.774-.81-1.575-1.644-1.877-2.377-.279-.671-.295-1.784-.312-2.863-.03-2.004-.063-4.275-1.643-5.854-1.579-1.58-3.85-1.612-5.854-1.643-1.079-.017-2.192-.033-2.863-.312-.731-.302-1.567-1.103-2.376-1.877C40.254 14.542 38.644 13 36.5 13s-3.752 1.542-5.17 2.904c-.81.774-1.644 1.575-2.377 1.877-.667.279-1.784.295-2.863.312-2.004.03-4.275.064-5.854 1.643-1.58 1.579-1.602 3.85-1.643 5.854-.017 1.079-.033 2.192-.312 2.863-.302.731-1.103 1.567-1.877 2.376C15.042 32.246 13.5 33.856 13.5 36s1.542 3.752 2.904 5.17c.774.81 1.575 1.644 1.877 2.377.279.671.295 1.784.312 2.863.03 2.004.064 4.275 1.643 5.854 1.579 1.58 3.85 1.612 5.854 1.643 1.079.017 2.192.033 2.863.312.731.302 1.567 1.103 2.376 1.877C32.746 57.458 34.356 59 36.5 59s3.752-1.542 5.17-2.904c.81-.774 1.644-1.575 2.377-1.877.671-.279 1.784-.295 2.863-.312 2.004-.03 4.275-.063 5.854-1.643 1.58-1.579 1.612-3.85 1.643-5.854.017-1.079.033-2.192.312-2.863.302-.731 1.103-1.567 1.877-2.376C57.958 39.754 59.5 38.144 59.5 36s-1.542-3.752-2.904-5.17zm-10.72 1.404l-11.5 11.5a1.645 1.645 0 01-2.324 0l-4.929-4.929A1.645 1.645 0 0128.286 36a1.644 1.644 0 011.162.481l3.766 3.769 10.338-10.34a1.644 1.644 0 112.325 2.325z" fill="#DAAE6F"/>
</svg>
