<svg width="24" height="25" viewBox="0 0 24 25" fill="none" xmlns="http://www.w3.org/2000/svg">
<path d="M5.5 4.5C5.36739 4.5 5.24021 4.55268 5.14645 4.64645C5.05268 4.74021 5 4.86739 5 5V7.5C5 8.03043 5.21071 8.53914 5.58579 8.91421C5.96086 9.28929 6.46957 9.5 7 9.5H17C17.5304 9.5 18.0391 9.28929 18.4142 8.91421C18.7893 8.53914 19 8.03043 19 7.5V5C19 4.86739 18.9473 4.74021 18.8536 4.64645C18.7598 4.55268 18.6326 4.5 18.5 4.5H5.5ZM12.5 12.5H16.5C16.8978 12.5 17.2794 12.342 17.5607 12.0607C17.842 11.7794 18 11.3978 18 11V10.5H6V11C6 11.3978 6.15804 11.7794 6.43934 12.0607C6.72064 12.342 7.10218 12.5 7.5 12.5H11.5V15C11.5 15.1326 11.5527 15.2598 11.6464 15.3536C11.7402 15.4473 11.8674 15.5 12 15.5C12.1326 15.5 12.2598 15.4473 12.3536 15.3536C12.4473 15.2598 12.5 15.1326 12.5 15V12.5ZM7 17C7 16.8674 7.05268 16.7402 7.14645 16.6464C7.24021 16.5527 7.36739 16.5 7.5 16.5H9C9.13261 16.5 9.25979 16.5527 9.35355 16.6464C9.44732 16.7402 9.5 16.8674 9.5 17C9.5 17.1326 9.44732 17.2598 9.35355 17.3536C9.25979 17.4473 9.13261 17.5 9 17.5H7.5C7.36739 17.5 7.24021 17.4473 7.14645 17.3536C7.05268 17.2598 7 17.1326 7 17ZM15 16.5C14.8674 16.5 14.7402 16.5527 14.6464 16.6464C14.5527 16.7402 14.5 16.8674 14.5 17C14.5 17.1326 14.5527 17.2598 14.6464 17.3536C14.7402 17.4473 14.8674 17.5 15 17.5H16.5C16.6326 17.5 16.7598 17.4473 16.8536 17.3536C16.9473 17.2598 17 17.1326 17 17C17 16.8674 16.9473 16.7402 16.8536 16.6464C16.7598 16.5527 16.6326 16.5 16.5 16.5H15ZM12.5 17C12.5 17.1326 12.4473 17.2598 12.3536 17.3536C12.2598 17.4473 12.1326 17.5 12 17.5C11.8674 17.5 11.7402 17.4473 11.6464 17.3536C11.5527 17.2598 11.5 17.1326 11.5 17C11.5 16.8674 11.5527 16.7402 11.6464 16.6464C11.7402 16.5527 11.8674 16.5 12 16.5C12.1326 16.5 12.2598 16.5527 12.3536 16.6464C12.4473 16.7402 12.5 16.8674 12.5 17ZM12.5 19C12.5 18.8674 12.4473 18.7402 12.3536 18.6464C12.2598 18.5527 12.1326 18.5 12 18.5C11.8674 18.5 11.7402 18.5527 11.6464 18.6464C11.5527 18.7402 11.5 18.8674 11.5 19V21C11.5 21.1326 11.5527 21.2598 11.6464 21.3536C11.7402 21.4473 11.8674 21.5 12 21.5C12.1326 21.5 12.2598 21.4473 12.3536 21.3536C12.4473 21.2598 12.5 21.1326 12.5 21V19ZM10.854 17.646C10.9006 17.6924 10.9375 17.7476 10.9627 17.8084C10.9879 17.8691 11.0009 17.9342 11.0009 18C11.0009 18.0658 10.9879 18.1309 10.9627 18.1916C10.9375 18.2524 10.9006 18.3076 10.854 18.354L9.354 19.854C9.26011 19.9479 9.13278 20.0006 9 20.0006C8.86722 20.0006 8.73989 19.9479 8.646 19.854C8.55211 19.7601 8.49937 19.6328 8.49937 19.5C8.49937 19.3672 8.55211 19.2399 8.646 19.146L10.146 17.646C10.1924 17.5994 10.2476 17.5625 10.3084 17.5373C10.3691 17.5121 10.4342 17.4991 10.5 17.4991C10.5658 17.4991 10.6309 17.5121 10.6916 17.5373C10.7524 17.5625 10.8076 17.5994 10.854 17.646ZM13.146 18.354C13.0521 18.2601 12.9994 18.1328 12.9994 18C12.9994 17.8672 13.0521 17.7399 13.146 17.646C13.2399 17.5521 13.3672 17.4994 13.5 17.4994C13.6328 17.4994 13.7601 17.5521 13.854 17.646L15.354 19.146C15.4479 19.2399 15.5006 19.3672 15.5006 19.5C15.5006 19.6328 15.4479 19.7601 15.354 19.854C15.2601 19.9479 15.1328 20.0006 15 20.0006C14.8672 20.0006 14.7399 19.9479 14.646 19.854L13.146 18.354Z" fill="#FCFDFF"/>
</svg>
