<svg fill="none" xmlns="http://www.w3.org/2000/svg" viewBox="0 0 32 32">
  <path d="M29.106 12.628c-.505-.528-1.027-1.072-1.224-1.55-.182-.438-.193-1.164-.203-1.867-.02-1.307-.042-2.788-1.072-3.818-1.03-1.03-2.511-1.051-3.818-1.072-.703-.01-1.43-.021-1.867-.203-.477-.197-1.022-.72-1.55-1.224C18.448 2.006 17.398 1 16 1s-2.447 1.006-3.372 1.894c-.528.505-1.072 1.027-1.55 1.224-.435.182-1.164.193-1.867.203-1.307.02-2.788.042-3.818 1.072-1.03 1.03-1.045 2.511-1.072 3.818-.01.703-.021 1.43-.203 1.867-.197.477-.72 1.022-1.224 1.55C2.006 13.552 1 14.602 1 16s1.006 2.447 1.894 3.372c.505.528 1.027 1.072 1.224 1.55.182.438.193 1.164.203 1.867.02 1.307.042 2.788 1.072 3.818 1.03 1.03 2.511 1.052 3.818 1.072.703.01 1.43.021 1.867.203.477.197 1.022.72 1.55 1.224C13.552 29.994 14.602 31 16 31s2.447-1.006 3.372-1.894c.528-.505 1.072-1.027 1.55-1.224.438-.182 1.164-.193 1.867-.203 1.307-.02 2.788-.042 3.818-1.072 1.03-1.03 1.052-2.511 1.072-3.818.01-.703.021-1.43.203-1.867.197-.477.72-1.022 1.224-1.55C29.994 18.448 31 17.398 31 16s-1.006-2.447-1.894-3.372zm-6.99.916l-7.5 7.5a1.07 1.07 0 01-1.517 0l-3.214-3.215a1.073 1.073 0 011.516-1.516l2.456 2.458 6.742-6.743a1.072 1.072 0 111.516 1.516z" fill="#9a7f71"/>
</svg>
