<svg width="24" height="25" viewBox="0 0 24 25" fill="none" xmlns="http://www.w3.org/2000/svg">
<g clip-path="url(#clip0_58_3007)">
<path d="M12.5912 23.7579L12.5802 23.7599L12.5092 23.7949L12.4892 23.7989L12.4752 23.7949L12.4042 23.7599C12.3936 23.7566 12.3856 23.7583 12.3802 23.7649L12.3762 23.7749L12.3592 24.2029L12.3642 24.2229L12.3742 24.2359L12.4782 24.3099L12.4932 24.3139L12.5052 24.3099L12.6092 24.2359L12.6212 24.2199L12.6252 24.2029L12.6082 23.7759C12.6056 23.7653 12.5999 23.7593 12.5912 23.7579ZM12.8562 23.6449L12.8432 23.6469L12.6582 23.7399L12.6482 23.7499L12.6452 23.7609L12.6632 24.1909L12.6682 24.2029L12.6762 24.2099L12.8772 24.3029C12.8899 24.3063 12.8996 24.3036 12.9062 24.2949L12.9102 24.2809L12.8762 23.6669C12.8729 23.6549 12.8662 23.6476 12.8562 23.6449ZM12.1412 23.6469C12.1368 23.6443 12.1315 23.6434 12.1265 23.6445C12.1215 23.6456 12.1171 23.6487 12.1142 23.6529L12.1082 23.6669L12.0742 24.2809C12.0749 24.2929 12.0806 24.3009 12.0912 24.3049L12.1062 24.3029L12.3072 24.2099L12.3172 24.2019L12.3212 24.1909L12.3382 23.7609L12.3352 23.7489L12.3252 23.7389L12.1412 23.6469Z" fill="#535556"/>
<path d="M12 4.5C9.87827 4.5 7.84344 5.34285 6.34315 6.84315C4.84285 8.34344 4 10.3783 4 12.5V17.8333C4 18.5406 4.28095 19.2189 4.78105 19.719C5.28115 20.219 5.95942 20.5 6.66667 20.5H7.89511C8.22533 20.5 8.54901 20.408 8.82989 20.2344C9.11076 20.0607 9.33773 19.8123 9.48533 19.5169L9.64089 19.2058C9.35339 19.0051 9.08446 18.779 8.83733 18.5302C7.86044 17.5471 7.11111 16.1036 7.11111 14.2778C7.11111 13.6244 7.22133 12.9747 7.42133 12.3604C7.51022 12.0876 7.75644 12.0556 8 12.0556C9.50222 12.0556 10.8311 11.3098 11.6364 10.1667C11.6775 10.1083 11.7319 10.0607 11.7952 10.0279C11.8584 9.99503 11.9287 9.97787 12 9.97787C12.0713 9.97787 12.1416 9.99503 12.2048 10.0279C12.2681 10.0607 12.3225 10.1083 12.3636 10.1667C12.7737 10.7502 13.3182 11.2264 13.9511 11.5552C14.584 11.884 15.2868 12.0556 16 12.0556C16.2436 12.0556 16.4907 12.0876 16.5787 12.3604C16.7818 12.9794 16.8865 13.6264 16.8889 14.2778C16.8889 16.1044 16.1396 17.5471 15.1627 18.5302C14.9093 18.7853 14.6382 19.0111 14.3591 19.2058L14.5147 19.5169C14.6623 19.8123 14.8892 20.0607 15.1701 20.2344C15.451 20.408 15.7747 20.5 16.1049 20.5H17.3333C18.0406 20.5 18.7189 20.219 19.219 19.719C19.719 19.2189 20 18.5406 20 17.8333V12.5C20 10.3783 19.1571 8.34344 17.6569 6.84315C16.1566 5.34285 14.1217 4.5 12 4.5Z" fill="#535556"/>
</g>
<defs>
<clipPath id="clip0_58_3007">
<rect width="24" height="24" fill="white" transform="translate(0 0.5)"/>
</clipPath>
</defs>
</svg>
