<svg width="24" height="25" viewBox="0 0 24 25" fill="none" xmlns="http://www.w3.org/2000/svg">
<path d="M9.34636 5.56942L8.24325 6.69377L6.96206 5.38716L8.02764 4.30107L7.24244 3.5L3 7.82411L3.7852 8.62443L4.85078 7.53834L6.13271 8.84495L5.0296 9.96929L14.5668 19.6901L18.5399 19.7831L20.2244 21.5L21 21.4145L18.9704 19.3458L18.8792 15.2962L9.34636 5.56942ZM9.34636 6.85053L14.1915 11.7889L11.139 14.9002L9.90564 13.6446L11.4363 12.0845L10.7887 11.4244L9.25805 12.9845L8.11742 11.8219L9.64808 10.2618L9.00049 9.60176L7.46983 11.1619L6.29681 9.96629L9.34636 6.85053Z" fill="#FCFDFF"/>
</svg>
