<svg width="16" height="16" viewBox="0 0 16 16" fill="none" xmlns="http://www.w3.org/2000/svg">
<path d="M8.67213 13.4948C8.63337 13.5302 8.588 13.5577 8.53861 13.5756C8.48923 13.5935 8.4368 13.6016 8.38432 13.5992C8.33183 13.5969 8.28032 13.5842 8.23273 13.562C8.18514 13.5397 8.14239 13.5083 8.10693 13.4696C8.03533 13.3913 7.99775 13.2877 8.00248 13.1817C8.00482 13.1293 8.01747 13.0777 8.03972 13.0302C8.06196 12.9826 8.09337 12.9398 8.13213 12.9044L13.0665 8.39956L2.00173 8.39956C1.89565 8.39956 1.79391 8.35741 1.71889 8.2824C1.64388 8.20738 1.60173 8.10564 1.60173 7.99956C1.60173 7.89347 1.64388 7.79173 1.71889 7.71671C1.79391 7.6417 1.89565 7.59955 2.00173 7.59955L13.0641 7.59956L8.13213 3.09716C8.09332 3.06175 8.06185 3.01905 8.03953 2.97148C8.01722 2.92392 8.00449 2.87242 8.00208 2.81994C7.99966 2.76746 8.00761 2.71501 8.02546 2.6656C8.04332 2.61619 8.07073 2.57077 8.10613 2.53196C8.14154 2.49314 8.18424 2.46167 8.23181 2.43936C8.27937 2.41704 8.33087 2.40431 8.38335 2.4019C8.43583 2.39948 8.48828 2.40743 8.53769 2.42529C8.5871 2.44314 8.63252 2.47055 8.67133 2.50596L14.2041 7.55716C14.2735 7.62052 14.327 7.69928 14.3603 7.7871C14.3937 7.87491 14.4059 7.96933 14.3961 8.06276C14.3809 8.20892 14.3126 8.34442 14.2041 8.44356L8.67213 13.4948Z" fill="#9a7f71"/>
</svg>
