<svg width="16" height="16" viewBox="0 0 16 16" fill="none" xmlns="http://www.w3.org/2000/svg">
<path d="M7.32787 13.4952C7.36663 13.5307 7.412 13.5582 7.46139 13.5761C7.51077 13.594 7.5632 13.602 7.61568 13.5997C7.66817 13.5974 7.71968 13.5847 7.76727 13.5625C7.81486 13.5402 7.85761 13.5088 7.89307 13.47C7.96467 13.3918 8.00225 13.2882 7.99752 13.1822C7.99518 13.1297 7.98253 13.0782 7.96028 13.0306C7.93804 12.983 7.90663 12.9403 7.86787 12.9048L2.93347 8.40004L13.9983 8.40004C14.1044 8.40004 14.2061 8.3579 14.2811 8.28289C14.3561 8.20787 14.3983 8.10613 14.3983 8.00004C14.3983 7.89396 14.3561 7.79221 14.2811 7.7172C14.2061 7.64219 14.1044 7.60004 13.9983 7.60004L2.93587 7.60004L7.86787 3.09764C7.90668 3.06224 7.93815 3.01954 7.96047 2.97197C7.98278 2.92441 7.99551 2.87291 7.99792 2.82043C8.00034 2.76795 7.99239 2.7155 7.97454 2.66609C7.95668 2.61668 7.92927 2.57126 7.89387 2.53244C7.85846 2.49362 7.81576 2.46216 7.76819 2.43984C7.72063 2.41753 7.66913 2.4048 7.61665 2.40239C7.56417 2.39997 7.51172 2.40792 7.46231 2.42577C7.4129 2.44363 7.36748 2.47104 7.32867 2.50644L1.79587 7.55764C1.72652 7.62101 1.67302 7.69977 1.63967 7.78758C1.60632 7.8754 1.59406 7.96982 1.60387 8.06324C1.61907 8.20941 1.68739 8.34491 1.79587 8.44404L7.32787 13.4952Z" fill="#0C7A7B"/>
</svg>
