<svg fill="none" xmlns="http://www.w3.org/2000/svg" viewBox="0 0 184 27">
  <g clip-path="url(#fG9C40DHkxLta)" fill="#F8E730">
    <path d="M12.562 1.788c.592-1.777 3.17-1.777 3.763 0l2.027 6.082a1.975 1.975 0 001.882 1.332h6.56c1.917 0 2.714 2.391 1.163 3.49L22.65 16.45a1.902 1.902 0 00-.719 2.156l2.027 6.082c.593 1.777-1.494 3.255-3.044 2.156l-5.308-3.758a2.02 2.02 0 00-2.326 0l-5.307 3.758c-1.55 1.099-3.637-.379-3.045-2.156l2.028-6.082a1.902 1.902 0 00-.72-2.156L.93 12.691C-.62 11.593.176 9.202 2.092 9.202h6.56c.858 0 1.617-.538 1.882-1.332l2.028-6.082zm38.778 0c.592-1.777 3.171-1.777 3.763 0L57.13 7.87a1.974 1.974 0 001.882 1.332h6.56c1.917 0 2.714 2.391 1.164 3.49l-5.308 3.758a1.902 1.902 0 00-.719 2.156l2.028 6.082c.592 1.777-1.494 3.255-3.045 2.156l-5.307-3.758a2.02 2.02 0 00-2.326 0l-5.308 3.758c-1.55 1.099-3.637-.379-3.044-2.156l2.027-6.082a1.902 1.902 0 00-.719-2.156l-5.307-3.759c-1.551-1.098-.754-3.489 1.163-3.489h6.56c.857 0 1.617-.538 1.882-1.332l2.027-6.082zm38.778 0c.593-1.777 3.171-1.777 3.764 0l2.026 6.082a1.975 1.975 0 001.882 1.332h6.561c1.917 0 2.713 2.391 1.163 3.49l-5.307 3.758a1.901 1.901 0 00-.72 2.156l2.028 6.082c.592 1.777-1.494 3.255-3.044 2.156l-5.308-3.758a2.02 2.02 0 00-2.326 0l-5.308 3.758c-1.55 1.099-3.636-.379-3.044-2.156l2.027-6.082a1.902 1.902 0 00-.719-2.156l-5.307-3.759c-1.55-1.098-.754-3.489 1.163-3.489h6.56c.857 0 1.617-.538 1.882-1.332l2.027-6.082zm38.779 0c.593-1.777 3.172-1.777 3.763 0l2.028 6.082a1.973 1.973 0 001.882 1.332h6.559c1.918 0 2.714 2.391 1.164 3.49l-5.308 3.758a1.902 1.902 0 00-.719 2.156l2.028 6.082c.592 1.777-1.495 3.255-3.045 2.156l-5.307-3.758a2.02 2.02 0 00-2.326 0l-5.308 3.758c-1.55 1.099-3.637-.379-3.044-2.156l2.027-6.082a1.902 1.902 0 00-.719-2.156l-5.308-3.759c-1.55-1.098-.753-3.489 1.164-3.489h6.561c.856 0 1.616-.538 1.881-1.332l2.027-6.082zm38.778 0c.593-1.777 3.171-1.777 3.763 0l2.027 6.082a1.976 1.976 0 001.883 1.332h6.56c1.917 0 2.713 2.391 1.163 3.49l-5.307 3.758a1.9 1.9 0 00-.719 2.156l2.027 6.082c.592 1.777-1.494 3.255-3.044 2.156l-5.308-3.758a2.02 2.02 0 00-2.326 0l-5.308 3.758c-1.55 1.099-3.636-.379-3.044-2.156l2.027-6.082a1.9 1.9 0 00-.719-2.156l-5.307-3.759c-1.55-1.098-.754-3.489 1.163-3.489h6.56c.858 0 1.617-.538 1.882-1.332l2.027-6.082z"/>
  </g>
  <defs>
    <clipPath id="fG9C40DHkxLta">
      <path fill="#fff" d="M0 0h184v27H0z"/>
    </clipPath>
  </defs>
</svg>
