<svg fill="none" xmlns="http://www.w3.org/2000/svg" viewBox="0 0 1441 900">
  <mask id="m2i39_94A3Vga" style="mask-type:alpha" maskUnits="userSpaceOnUse" x="0" y="0" width="1441" height="900">
    <path fill="#9a7f71" d="M0 0h1441v900H0z"/>
  </mask>
  <g mask="url(#m2i39_94A3Vga)" stroke="#9a7f71" stroke-opacity=".5">
    <circle cx="720" cy="5936" r="5394" stroke-width="2"/>
    <!-- <path d="M376.021 124.84c40.81 95.261 24.075 204.55-36.06 304.268-60.135 99.716-163.651 189.821-296.308 246.651-132.658 56.83-269.301 69.609-382.974 44.351-113.674-25.257-204.337-88.537-245.147-183.799-40.809-95.261-24.074-204.55 36.061-304.267 60.134-99.716 163.651-189.822 296.308-246.652 132.657-56.83 269.3-69.608 382.973-44.351C244.548-33.701 335.212 29.579 376.021 124.84z"/> -->
    <path d="M312.097 534.126c-11.707 80.634-80.067 145.349-181.34 184.732-101.256 39.376-235.31 53.378-378.153 32.64-142.843-20.738-267.381-72.281-353.26-138.826-85.893-66.555-133.028-148.038-121.322-228.671 11.706-80.634 80.067-145.349 181.339-184.732 101.257-39.376 235.31-53.377 378.153-32.64 142.844 20.738 267.382 72.281 353.261 138.826 85.892 66.555 133.028 148.038 121.322 228.671zM2087.9 578.871c-13.87 95.515-84.23 173.657-186.89 222.749-102.66 49.091-237.58 69.102-380.41 48.366-142.82-20.735-266.48-78.285-350.94-154.542-84.47-76.26-129.7-171.184-115.84-266.699 13.87-95.515 84.23-173.657 186.9-222.749 102.66-49.091 237.57-69.102 380.4-48.367 142.83 20.736 266.48 78.286 350.95 154.543 84.46 76.26 129.7 171.183 115.83 266.699z"/>
    <path d="M2073.3 955.367c-70.57 65.843-174.35 82.783-285.16 56.863-110.8-25.929-228.57-94.719-327.03-200.248-98.45-105.529-158.92-227.784-177.1-340.116-18.19-112.336 5.9-214.688 76.47-280.529 70.57-65.842 174.35-82.788 285.16-56.86 110.8 25.926 228.57 94.716 327.03 200.245 98.45 105.529 158.92 227.784 177.1 340.116 18.19 112.336-5.9 214.688-76.47 280.529z"/>
  </g>
</svg>
