<svg fill="none" xmlns="http://www.w3.org/2000/svg" viewBox="0 0 428 520">
  <g clip-path="url(#fdlW9Ez9tPA7a)">
    <rect x=".5" y="-.001" width="427" height="238.2" rx="16" fill="#fff"/>
    <path d="M92.908-645.867c67.297 26.546 112.215 91.323 130.378 174.701 18.161 83.375 9.55 185.294-30.168 285.981C153.4-84.498 90.112-4.148 19.921 44.375c-70.194 48.524-147.239 65.19-214.535 38.643-67.297-26.546-112.215-91.322-130.378-174.701-18.161-83.375-9.55-185.294 30.168-285.981 39.718-100.687 103.006-181.036 173.197-229.559 70.194-48.525 147.239-65.19 214.535-38.644z" stroke="#CDE7E6" stroke-opacity=".5"/>
    <g clip-path="url(#fdlW9Ez9tPA7b)">
      <path d="M.5 254.199c0-8.836 7.163-16 16-16h395c8.837 0 16 7.164 16 16v249c0 8.837-7.163 16-16 16h-395c-8.837 0-16-7.163-16-16v-249z" fill="#fff"/>
      <path d="M174.749 523.105c119.023 46.951 183.386 166.028 144 265.874-39.386 99.847-167.711 142.914-286.734 95.963-119.022-46.95-183.386-166.028-144-265.874 39.387-99.846 167.711-142.913 286.734-95.963z" stroke="#CDE7E6" stroke-opacity=".5"/>
      <path d="M-74.09 364.271c86.907 34.282 124.874 144.778 84.588 246.904-40.285 102.125-143.463 156.944-230.37 122.662-86.907-34.282-124.873-144.779-84.588-246.904 40.285-102.125 143.464-156.944 230.37-122.662z" stroke="#CDE7E6" stroke-opacity=".5"/>
      <!-- <path d="M44.5 238.199h339" stroke="url(#fdlW9Ez9tPA7c)" stroke-linecap="round"/> -->
    </g>
    <path d="M893.496 526.894c-59.034 41.816-137.831 43.987-217.565 13.584-79.73-30.402-160.34-93.359-222.903-181.684-62.564-88.324-95.209-185.256-97.435-270.557-2.227-85.305 25.965-158.918 84.999-200.734 59.033-41.815 137.83-43.986 217.564-13.583 79.731 30.402 160.34 93.359 222.904 181.683 62.563 88.325 95.209 185.257 97.435 270.558 2.226 85.305-25.966 158.918-84.999 200.733z" stroke="#CDE7E6" stroke-opacity=".5"/>
    <path d="M258.829-103.902c-2.713-72.292 38.571-139.443 107.638-189.56 69.063-50.116 165.86-83.159 274.021-87.219 108.161-4.06 207.163 21.633 279.789 66.429 72.629 44.799 118.833 108.665 121.543 180.957 2.72 72.292-38.57 139.443-107.634 189.56-69.063 50.115-165.86 83.159-274.022 87.219-108.161 4.06-207.163-21.633-279.789-66.43C307.746 32.257 261.543-31.61 258.829-103.901z" stroke="#CDE7E6" stroke-opacity=".5"/>
  </g>
  <defs>
    <clipPath id="fdlW9Ez9tPA7a">
      <path fill="#fff" transform="translate(.5 -.001)" d="M0 0h427v519.2H0z"/>
    </clipPath>
    <clipPath id="fdlW9Ez9tPA7b">
      <path d="M.5 254.199c0-8.836 7.163-16 16-16h395c8.837 0 16 7.164 16 16v249c0 8.837-7.163 16-16 16h-395c-8.837 0-16-7.163-16-16v-249z" fill="#fff"/>
    </clipPath>
    <linearGradient id="fdlW9Ez9tPA7c" x1="44.5" y1="239.199" x2="383.5" y2="239.199" gradientUnits="userSpaceOnUse">
      <stop stop-color="#fff"/>
      <stop offset=".47" stop-color="#CDE7E6"/>
      <stop offset="1" stop-color="#fff"/>
    </linearGradient>
  </defs>
</svg>