<svg fill="none" xmlns="http://www.w3.org/2000/svg" viewBox="0 0 1440 469">
  <g clip-path="url(#Ma1CtIpCu_Ssa)">
    <path fill="#944839" d="M0 .198h1440v468H0z"/>
    <path d="M265.297 870.565c-70.572 65.842-174.348 82.788-285.154 56.86-110.802-25.926-228.574-94.716-327.029-200.245-98.456-105.529-158.921-227.784-177.11-340.116-18.189-112.336 5.905-214.688 76.477-280.529 70.572-65.841 174.348-82.788 285.154-56.86C-51.563 75.6 66.209 144.39 164.664 249.92c98.455 105.529 158.921 227.784 177.11 340.116 18.189 112.336-5.906 214.688-76.477 280.529z" stroke="#ebdbd6"/>
    <path d="M-167.234 1033.23c-91.368-13.42-165.673-83.346-211.905-185.699-46.231-102.348-64.356-237.053-43.387-379.851 20.969-142.798 77.056-266.606 150.759-351.342C-198.061 31.598-106.79-14.017-15.421-.599 75.947 12.818 150.25 82.745 196.484 185.099c46.23 102.347 64.355 237.052 43.386 379.85-20.969 142.799-77.056 266.606-150.758 351.342-73.707 84.739-164.978 130.359-256.346 116.939zm1119.583-7.98c-67.666-68.829-87.323-172.125-64.305-283.572 23.018-111.443 88.702-230.975 191.616-332.159 102.92-101.183 223.55-164.828 335.37-185.951 111.82-21.123 214.76.285 282.43 69.109 67.67 68.824 87.32 172.121 64.3 283.567-23.01 111.443-88.7 230.976-191.61 332.159-102.92 101.187-223.55 164.827-335.37 185.947-111.82 21.13-214.77-.28-282.431-69.1z" stroke="#ebdbd6"/>
    <path d="M1963.91 975.303c-80.61 53.077-185.76 52.397-290.65 8.26-104.89-44.132-209.46-131.69-288.84-252.228-79.37-120.539-118.49-251.199-117.59-364.991.9-113.795 41.81-210.661 122.42-263.742 80.6-53.08 185.75-52.392 290.64-8.259 104.89 44.132 209.47 131.69 288.84 252.228 79.38 120.539 118.5 251.199 117.6 364.991-.9 113.795-41.81 210.661-122.42 263.741zM1091 359.698H819.53c-6.627 0-12-5.372-12-12v-15c0-6.627-5.373-12-12-12H643.57c-6.627 0-12 5.373-12 12v15c0 6.628-5.373 12-12 12H348m787.82 0H819.709c-6.627 0-12 5.373-12 12v14c0 6.628-5.372 12-12 12h-152.32c-6.627 0-12-5.372-12-12v-14c0-6.627-5.372-12-12-12H250.297" stroke="#ebdbd6"/>
  </g>
  <defs>
    <clipPath id="Ma1CtIpCu_Ssa">
      <path fill="#fff" transform="translate(0 .198)" d="M0 0h1440v468H0z"/>
    </clipPath>
  </defs>
</svg>
