<svg fill="none" xmlns="http://www.w3.org/2000/svg" viewBox="0 0 54 54">
  <path d="M49.062 22.593H47.25V22.5H27v9h12.716c-1.855 5.24-6.84 9-12.716 9-7.455 0-13.5-6.045-13.5-13.5S19.545 13.5 27 13.5c3.441 0 6.572 1.298 8.956 3.419l6.364-6.364C38.302 6.81 32.926 4.5 27 4.5 14.574 4.5 4.5 14.574 4.5 27S14.574 49.5 27 49.5 49.5 39.426 49.5 27a22.61 22.61 0 00-.438-4.407z" fill="#FFC107"/>
  <path d="M7.094 16.527l7.393 5.422c2-4.953 6.844-8.449 12.513-8.449 3.441 0 6.572 1.298 8.956 3.419l6.364-6.364C38.302 6.81 32.926 4.5 27 4.5c-8.642 0-16.137 4.88-19.906 12.027z" fill="#FF3D00"/>
  <path d="M27 49.5c5.812 0 11.092-2.224 15.085-5.841l-6.964-5.893A13.387 13.387 0 0127 40.5c-5.852 0-10.822-3.732-12.694-8.94L6.97 37.215C10.693 44.5 18.255 49.5 27 49.5z" fill="#4CAF50"/>
  <path d="M49.062 22.593H47.25V22.5H27v9h12.716a13.545 13.545 0 01-4.598 6.267l.003-.002 6.964 5.893C41.592 44.106 49.5 38.25 49.5 27a22.66 22.66 0 00-.438-4.407z" fill="#1976D2"/>
</svg>
